<svg width="120" height="120" viewBox="0 0 120 120" fill="none" xmlns="http://www.w3.org/2000/svg">
<path d="M105.272 96.1952C100.312 95.7443 95.3484 95.2633 90.3687 95.0916C87.0516 94.9773 83.6666 94.9861 80.3749 95.5198C80.3261 95.4843 80.2786 95.4479 80.2312 95.4113C81.0561 94.5454 81.8103 93.6098 82.5028 92.6397C83.0128 91.9252 83.4897 91.1879 83.9384 90.4327C84.0101 90.4939 84.1036 90.5355 84.2197 90.5432C84.2828 90.5474 84.346 90.5484 84.4091 90.552C84.2893 90.9076 84.6715 91.3645 85.086 91.1149C85.3612 90.9491 85.614 90.7643 85.8465 90.5644C88.7767 90.4561 91.583 89.5195 93.9935 87.7722C96.7791 85.7531 98.8212 82.8517 100.247 79.7547C101.041 78.0308 101.689 76.1981 102.244 74.3852C102.809 72.5407 103.168 70.5374 102.865 68.6119C102.285 64.9339 99.4029 62.1105 95.7421 61.4999C94.2136 61.2449 92.6955 61.5161 91.4251 62.3159C91.5079 61.0881 91.5645 59.8595 91.591 58.6324C91.5981 58.3063 91.5998 57.98 91.6012 57.6539C91.6301 57.5884 91.6589 57.5228 91.6847 57.455C92.195 56.1176 91.4657 54.6647 90.619 53.6503C89.8399 52.7172 88.4607 52.3303 87.3284 52.0699C85.8387 51.7273 84.2938 51.6109 82.7716 51.5172C81.6065 51.4455 80.3965 51.4828 79.2422 51.2966C76.3613 50.8319 73.4054 50.6965 70.4974 50.5152C65.5855 50.2089 60.6638 50.0352 55.7427 50.0049C50.6345 49.9735 45.5062 50.0822 40.4226 50.6174C38.3545 50.8352 36.2857 51.1274 34.2602 51.6053C32.7796 51.9546 31.2634 52.409 29.9536 53.2017C29.2876 53.6049 28.7146 54.1372 28.3701 54.7693C28.1473 54.7157 27.8989 54.803 27.8347 55.0917C25.8263 64.1046 28.8227 73.1988 32.4304 81.3959C33.3438 83.4715 34.3215 85.5184 35.3081 87.56C36.099 89.1961 36.8572 90.8142 37.8737 92.3284C38.4885 93.2442 39.1788 94.0956 39.9392 94.8729C39.2173 94.8598 38.5003 94.9395 37.7865 95.1132C37.7761 95.1157 37.7651 95.1186 37.7548 95.1213C37.6794 95.0199 37.5622 94.9469 37.4013 94.9394C29.7393 94.5804 21.8697 94.5991 14.3381 96.2122C14.0695 96.2697 13.9673 96.5507 14.009 96.7915C14.0373 96.9545 14.0985 97.1027 14.1609 97.2505C13.9298 97.4729 13.9336 97.946 14.3381 98.0625C23.0917 100.583 31.9969 102.518 41.0545 103.525C38.982 103.636 36.8161 103.268 34.9639 104.424C34.6665 104.609 34.6511 105.055 34.9639 105.237C37.0365 106.444 39.324 106.901 41.654 107.159C41.6787 107.271 41.7483 107.374 41.8767 107.435C45.5073 109.187 49.8304 108.762 53.7405 108.756C53.9704 108.755 54.1262 108.587 54.182 108.394C54.1836 108.389 54.1844 108.383 54.1858 108.378C55.7108 108.435 57.2395 108.442 58.768 108.442C59.324 108.442 59.3564 107.738 58.9328 107.546C58.9769 107.542 59.0209 107.537 59.0649 107.533C60.433 107.52 61.801 107.501 63.167 107.5C63.3889 107.5 63.5288 107.373 63.5887 107.214C69.4462 107.99 76.0284 108.886 81.001 105.237C81.0978 105.166 81.155 105.077 81.1832 104.982C84.1435 104.896 87.0974 104.671 90.0333 104.221C93.4305 103.699 96.7728 102.823 99.9533 101.516C101.158 101.021 102.378 100.392 103.475 99.6864C104.566 98.9859 105.257 97.9834 105.727 96.7915C105.848 96.4829 105.547 96.2202 105.272 96.1952ZM78.7767 96.793C78.7311 96.9014 78.7221 97.0252 78.7566 97.1373C78.6244 97.1373 78.4925 97.1373 78.3603 97.1373C78.5008 97.0245 78.6397 96.9099 78.7767 96.793ZM76.1201 98.6426C76.1305 98.6484 76.1402 98.6547 76.1512 98.6599C76.1217 98.6646 76.0923 98.6688 76.0629 98.6736C76.0819 98.6632 76.1011 98.6532 76.1201 98.6426ZM81.0912 98.2431C81.0712 98.2117 81.0484 98.1799 81.023 98.1479C81.0899 98.1327 81.1564 98.1159 81.2228 98.0997C81.3528 98.143 81.4827 98.1864 81.6129 98.2294C81.439 98.2333 81.2651 98.2379 81.0912 98.2431ZM79.6254 96.608C79.803 96.5733 79.9807 96.5383 80.1589 96.5069C80.3198 96.6105 80.4851 96.7093 80.6532 96.8039C80.3083 96.751 79.9644 96.6917 79.6254 96.608ZM84.9985 88.5119C85.0063 88.5503 85.0143 88.589 85.0219 88.6271C85.0841 88.9394 85.4087 89.0317 85.6564 88.9352C85.6899 89.0435 85.7631 89.1342 85.8553 89.1969C85.7397 89.3486 85.6123 89.4932 85.4745 89.631C85.1216 89.6367 84.7672 89.6288 84.412 89.6096C84.6139 89.2474 84.809 88.8813 84.9985 88.5119ZM90.9459 67.2427C91.1042 67.3163 91.299 67.3137 91.4657 67.1683C93.3249 65.5459 95.755 66.0692 97.1808 67.975C98.8215 70.1679 98.3102 73.1072 97.3151 75.4619C95.4872 79.7877 91.1821 82.047 87.0613 83.7771C88.0451 81.1141 88.8071 78.3645 89.4376 75.6476C90.0795 72.8809 90.5848 70.071 90.9459 67.2427ZM100.653 65.5332C103.299 69.2434 101.518 73.773 100.129 77.5827C98.9071 80.9361 96.953 84.0796 94.2199 86.405C92.0804 88.2253 89.4858 89.2716 86.7541 89.5541C86.8272 89.4479 86.8948 89.3388 86.9596 89.2284C87.0566 89.1795 87.1376 89.0901 87.182 88.9554C87.184 88.9559 87.1859 88.9565 87.1878 88.9571C87.1964 88.9166 87.2068 88.8764 87.2157 88.8361C87.2338 88.7716 87.2511 88.7067 87.2671 88.6419C87.4585 88.6808 87.6713 88.616 87.7686 88.4249C87.8486 88.2679 87.9312 88.112 88.0146 87.9565C88.0365 88.1919 88.0784 88.4218 88.164 88.6274C88.3559 89.0879 89.0969 89.0754 89.0899 88.5023C89.0812 87.8145 89.0101 87.1374 88.909 86.4645C88.912 86.4008 88.9147 86.3375 88.9174 86.2749C88.9511 86.2031 88.9845 86.1307 89.0173 86.0573C89.1515 85.7734 89.2749 85.5007 89.3811 85.2042C89.3833 85.1992 89.3937 85.205 89.3959 85.205H89.4042V85.1727C89.5613 84.6704 88.9263 84.4366 88.6072 84.7428C88.5692 84.5538 88.5269 84.3646 88.4883 84.1752C92.9971 82.1491 97.1849 79.409 98.6984 74.3808C99.5091 71.6875 99.3753 68.7977 97.3181 66.699C95.5571 64.9027 92.9855 64.8104 91.0622 66.2889C91.1681 65.3781 91.2575 64.4659 91.3329 63.5528C94.163 61.0892 98.6636 62.7442 100.653 65.5332ZM33.5829 52.7516C37.8244 51.5659 42.3464 51.301 46.7246 51.1029C56.2252 50.673 65.8167 50.995 75.2903 51.8066C76.4386 51.9049 77.724 52.0199 78.7828 52.1729C81.237 52.5272 83.734 52.4071 86.1884 52.8058C87.4421 53.0094 88.9277 53.3013 89.8677 54.2246C90.7071 55.049 91.0514 56.1473 90.7433 57.1454C90.702 57.2024 90.6757 57.2736 90.6666 57.357C90.548 57.6465 90.3752 57.9255 90.1364 58.1833C89.0938 59.3092 87.4663 59.8842 86.0205 60.2624C84.1553 60.7504 82.159 60.887 80.2257 61.0013C79.0327 60.2615 77.7889 59.6988 76.5086 59.2741C76.4673 59.031 76.2427 58.7997 75.9244 58.8448C75.7297 58.8724 75.5349 58.8991 75.3399 58.9261C70.6012 57.6688 65.4379 58.0775 60.5551 58.2389C53.3265 58.4777 45.8466 57.915 38.8468 60.101C38.639 60.1658 38.5392 60.3252 38.5219 60.4938C36.7092 60.104 34.9433 59.5526 33.258 58.7782C31.6769 58.0518 30.2214 57.0805 28.977 55.8642C29.1738 54.0747 32.0183 53.189 33.5829 52.7516ZM59.6096 60.9493C60.0409 60.8692 60.4704 60.7785 60.8973 60.6756C61.6352 60.6942 62.3735 60.7058 63.1116 60.7094C61.9483 60.829 60.7801 60.9031 59.6096 60.9493ZM67.5134 59.0202C67.4779 59.0079 67.4429 58.9952 67.4077 58.9825C67.4534 58.9825 67.4994 58.9825 67.5452 58.9826C67.5343 58.9947 67.5233 59.007 67.5134 59.0202ZM66.5042 59.142C65.7469 59.142 64.9895 59.142 64.2324 59.142C64.2228 59.1084 64.2088 59.0765 64.1918 59.0462C64.9826 59.0183 65.7755 58.9958 66.5681 58.9866C66.539 59.0332 66.5172 59.0858 66.5042 59.142ZM54.369 59.456C53.7716 59.5157 53.7534 60.3645 54.3677 60.3979C53.7306 60.4235 53.0923 60.4258 52.4538 60.4078C52.8214 60.3002 53.1875 60.1867 53.5515 60.0671C53.9017 59.9522 53.9677 59.4946 53.7671 59.2687C54.6846 59.2587 55.6013 59.2533 56.5158 59.2466C55.8001 59.3139 55.0846 59.3846 54.369 59.456ZM48.5376 59.4325C49.4468 59.377 50.3585 59.34 51.2709 59.3147C50.361 59.3785 49.4497 59.4133 48.5376 59.4325ZM45.148 60.134C43.8994 60.2753 42.6476 60.3764 41.389 60.3938C42.6316 60.1093 43.8873 59.8974 45.1521 59.7396C45.0991 59.865 45.0957 60.0107 45.148 60.134ZM40.7172 60.8871C40.455 60.8488 40.1934 60.8078 39.9328 60.7637C40.2407 60.6775 40.5497 60.5959 40.8595 60.5194C40.7614 60.6139 40.7134 60.7508 40.7172 60.8871ZM43.8619 61.2126C43.862 61.2154 43.8624 61.2181 43.8627 61.2208C43.8443 61.2195 43.8259 61.2184 43.8074 61.2171C43.8256 61.2156 43.8437 61.214 43.8619 61.2126ZM55.08 62.1439C54.1173 62.2232 53.1528 62.2553 52.1927 62.2287C53.1553 62.2063 54.1176 62.1766 55.08 62.1439ZM67.4342 60.9794C67.9671 61.0302 68.5015 61.0677 69.0367 61.0931C69.0426 61.1063 69.0476 61.12 69.0547 61.1325C68.3436 61.1186 67.6325 61.1035 66.9216 61.0892C67.0928 61.0546 67.2635 61.0168 67.4342 60.9794ZM75.2326 61.0093C75.3457 60.9914 75.4285 60.935 75.4845 60.8592C75.6552 60.84 75.826 60.8215 75.9963 60.8005C76.4819 60.8981 76.9658 61.0097 77.448 61.1347C76.2266 61.1744 75.0045 61.1898 73.782 61.1895C74.2662 61.1441 74.7498 61.0854 75.2326 61.0093ZM35.6599 86.1259C34.7501 84.2349 33.8615 82.3339 33.0206 80.4112C29.862 73.1874 27.2494 65.1471 28.404 57.2054C28.5817 57.2793 28.8012 57.2364 28.9413 57.1102C33.8623 61.4073 41.0258 62.1105 47.3032 62.248C47.8369 62.2597 48.3706 62.2645 48.9043 62.2663C48.818 62.5148 48.9308 62.8481 49.216 62.8933C53.3174 63.5435 57.5738 62.9626 61.5798 61.9851C64.4663 61.9752 67.3521 62.0447 70.24 62.0925C73.4999 62.1463 76.7798 62.1724 80.0397 61.9598C80.1565 61.9965 80.2609 61.9852 80.3455 61.9392C81.5837 61.8527 82.8187 61.7317 84.0484 61.5621C86.1717 61.2694 88.9926 60.6821 90.6379 59.0437C90.6052 60.4015 90.5342 61.7593 90.427 63.1152C90.3185 63.2615 90.3217 63.4262 90.3913 63.563C90.0916 67.1041 89.5508 70.6287 88.817 74.0952C88.0401 77.7649 87.0201 81.4587 85.5741 84.9582C85.4734 85.0141 85.3871 85.1082 85.3356 85.2367C85.1597 85.6768 84.9535 86.1266 84.8585 86.5962C84.0806 88.2798 83.1952 89.9092 82.1744 91.4557C81.3429 92.7155 80.398 93.9133 79.3327 94.9877C79.2181 95.0397 79.1225 95.1337 79.0706 95.2461C78.8191 95.4904 78.5611 95.7275 78.2964 95.9571C78.2513 95.9842 78.2134 96.0164 78.1845 96.0542C77.733 96.4392 77.262 96.8011 76.7716 97.1374C76.7404 97.1374 76.7091 97.1374 76.6777 97.1374C76.42 97.1374 76.272 97.2977 76.2336 97.4874C73.4029 99.2482 70.0328 99.8175 66.7502 100.041C62.4115 100.335 58.0458 99.9486 53.7292 99.5231C51.5869 99.3119 49.4443 98.9646 47.4009 98.3117C47.6898 98.101 47.6938 97.5485 47.2667 97.4684C46.7093 97.3638 46.1486 97.2965 45.5868 97.2586C44.9527 97.0497 44.4917 96.6182 44.4707 95.7245C44.4562 95.118 43.5136 95.1166 43.528 95.7245C43.5312 95.8495 43.5403 95.9687 43.5546 96.0828C43.1568 95.987 42.7609 95.8823 42.3648 95.7801C40.6115 94.4473 39.1912 92.7306 38.039 90.839C37.1216 89.3321 36.423 87.7124 35.6599 86.1259ZM39.2338 96.1993C39.2204 96.2006 39.2065 96.2001 39.1937 96.2025C39.2039 96.2006 39.2145 96.1987 39.2248 96.1968C39.2278 96.1976 39.2308 96.1985 39.2338 96.1993ZM39.1923 96.2028C38.9791 96.2426 38.85 96.4351 38.8278 96.6345C38.6028 96.6036 38.3787 96.5681 38.1551 96.5262C38.0165 96.5001 37.8872 96.5394 37.7832 96.6129C37.6863 96.5808 37.5898 96.5477 37.4932 96.5146C38.0596 96.41 38.6259 96.3065 39.1923 96.2028ZM40.7004 97.8776C40.7965 97.9174 40.8922 97.9535 40.9877 97.9885C40.8908 97.9763 40.794 97.9634 40.6971 97.951C40.7002 97.9265 40.7012 97.902 40.7004 97.8776ZM44.6482 98.2456C44.725 98.2822 44.8022 98.3179 44.8796 98.3534C44.7646 98.3478 44.6493 98.3434 44.5345 98.3366C44.578 98.3121 44.616 98.2817 44.6482 98.2456ZM37.2924 104.973C37.2479 105.062 37.2296 105.161 37.2443 105.254C36.9202 105.132 36.6016 104.995 36.2888 104.842C36.6228 104.714 36.9728 104.625 37.3336 104.565C37.269 104.685 37.2514 104.836 37.2924 104.973ZM45.8851 107.5C46.3693 107.5 46.5167 106.805 46.1162 106.612C46.2072 106.606 46.2978 106.6 46.3887 106.594C46.4319 106.722 46.533 106.826 46.7024 106.855C46.9723 106.901 47.2425 106.942 47.5128 106.983C47.2273 107.205 47.2009 107.723 47.6451 107.797C47.7388 107.812 47.8326 107.828 47.9263 107.843C46.9392 107.797 45.9605 107.696 45.0111 107.499C45.3024 107.5 45.5938 107.5 45.8851 107.5ZM41.4883 104.421C41.6922 104.409 41.8939 104.392 42.0925 104.368C42.2149 104.402 42.34 104.462 42.4636 104.534C42.1384 104.497 41.8132 104.459 41.4883 104.421ZM61.2808 105.977C59.6469 105.78 58.0089 105.64 56.3646 105.566C54.391 105.476 52.4134 105.677 50.4414 105.726C49.3082 105.754 48.1079 105.752 46.9637 105.545C46.9897 105.301 46.8355 105.023 46.5136 104.988C45.9275 104.923 45.3415 104.858 44.7557 104.792C44.2916 104.551 43.841 104.282 43.3907 104.018C43.2423 103.931 43.079 103.82 42.9092 103.717C47.3484 104.146 51.8078 104.346 56.2671 104.359C60.6681 104.372 65.0603 104.602 69.4559 104.796C72.8425 104.945 76.2401 105.061 79.632 105.015C74.2493 108.256 67.1598 106.686 61.2808 105.977ZM101.116 99.9087C99.1627 100.926 97.0805 101.637 94.958 102.221C90.6232 103.414 86.121 103.876 81.6393 104.032C77.13 104.188 72.6155 103.999 68.1111 103.794C63.6616 103.591 59.2228 103.455 54.7691 103.407C41.3163 103.262 28.1093 100.999 15.1937 97.3261C15.1622 97.2208 15.1207 97.1197 15.0784 97.019C21.9422 95.6156 29.0868 95.5386 36.0767 95.8233C35.9474 95.8481 35.8176 95.8727 35.6893 95.8982C35.3001 95.9751 35.2235 96.5862 35.5846 96.759C35.6355 96.7834 35.6877 96.8044 35.7388 96.8278C35.8522 97.0828 36.1652 97.2323 36.3851 97.1026C36.7981 97.2652 37.2178 97.4112 37.6404 97.5491C35.8923 97.3279 34.1408 97.1472 32.374 97.1373C31.766 97.134 31.7663 98.076 32.374 98.0793C37.0172 98.1054 41.5562 99.3093 46.1995 99.3353C46.4235 99.3366 46.564 99.2093 46.6231 99.0482C49.1423 99.9133 51.7988 100.278 54.4596 100.536C58.7975 100.958 63.1746 101.279 67.5291 100.924C69.3123 100.779 71.0985 100.507 72.8091 100.003C72.8901 100.198 73.0838 100.341 73.3475 100.261C75.267 99.677 77.2255 99.4025 79.2012 99.2694C79.4684 99.3003 79.7361 99.3253 80.0037 99.3388C80.3108 99.3543 80.5914 99.2977 80.8051 99.1893C82.3003 99.1374 83.8015 99.1397 85.3001 99.1259C85.8467 99.1758 86.3959 99.1747 86.9482 99.1005C87.6113 99.0846 88.2732 99.0604 88.9329 99.0215C89.537 98.9857 89.5405 98.0435 88.9329 98.0795C88.4831 98.106 88.0325 98.1256 87.5812 98.1409C87.5185 98.1046 87.4457 98.081 87.3618 98.0795C85.8539 98.0521 84.3513 97.4792 82.9854 96.8842C82.5606 96.6992 82.1091 96.5026 81.6654 96.2821C84.6344 95.9106 87.664 95.9407 90.6396 96.0433C95.2933 96.2036 99.9343 96.649 104.57 97.0734C103.817 98.4822 102.561 99.1562 101.116 99.9087Z" fill="black"/>
<path d="M40.467 64.5446C39.6991 64.193 38.8615 64.1667 38.0296 64.1663C37.4218 64.1659 37.4218 65.108 38.0296 65.1083C38.6753 65.1086 39.3908 65.083 39.9913 65.3579C40.5397 65.6091 41.0191 64.7974 40.467 64.5446Z" fill="black"/>
<path d="M39.2867 67.6203C39.5436 67.6203 39.758 67.406 39.758 67.1493C39.758 66.9394 39.6138 66.7601 39.4212 66.7009C39.3619 66.5084 39.1824 66.3643 38.9725 66.3643C38.7156 66.3643 38.5012 66.5786 38.5012 66.8353C38.5012 66.9006 38.4993 66.9667 38.5079 67.0315C38.5301 67.1965 38.5668 67.3091 38.6757 67.4402C38.8215 67.6157 39.0792 67.6203 39.2867 67.6203Z" fill="black"/>
<path d="M38.6075 70.3756C38.7338 70.6281 39.0166 70.7541 39.2865 70.7604C39.5436 70.7664 39.7579 70.5416 39.7579 70.2894C39.7579 70.0759 39.6136 69.9027 39.421 69.8426C39.3619 69.6493 39.1839 69.5044 38.9723 69.5044C38.7169 69.5044 38.4989 69.7187 38.501 69.9754C38.5022 70.1194 38.5439 70.2484 38.6075 70.3756Z" fill="black"/>
<path d="M38.9722 73.5866C39.2865 73.5866 39.6007 73.5866 39.9149 73.5866C40.5228 73.5866 40.5228 72.6445 39.9149 72.6445C39.6007 72.6445 39.2865 72.6445 38.9722 72.6445C38.3644 72.6445 38.3644 73.5866 38.9722 73.5866Z" fill="black"/>
<path d="M39.6199 77.8066C39.4653 77.6603 39.2944 77.5422 39.1057 77.4452C38.9533 77.3668 38.8027 77.297 38.6773 77.1786C38.2361 76.7613 37.5684 77.4263 38.0108 77.8446C38.1654 77.9909 38.3364 78.109 38.5251 78.206C38.6775 78.2844 38.8281 78.3542 38.9535 78.4726C39.3946 78.8899 40.0624 78.2249 39.6199 77.8066Z" fill="black"/>
<path d="M40.4669 85.2692C40.0156 85.028 39.7695 84.6172 39.7577 84.1058C39.7439 83.4993 38.8013 83.4979 38.8151 84.1058C38.8339 84.9367 39.2493 85.6862 39.9912 86.0825C40.5271 86.3689 41.0033 85.5556 40.4669 85.2692Z" fill="black"/>
<path d="M80.7633 76.0985C81.1823 76.0985 81.6011 76.0985 82.0201 76.0985C82.628 76.0985 82.628 75.1565 82.0201 75.1565C81.6011 75.1565 81.1823 75.1565 80.7633 75.1565C80.1554 75.1565 80.1554 76.0985 80.7633 76.0985Z" fill="black"/>
<path d="M79.8204 83.3207C80.0773 83.3207 80.2918 83.1064 80.2918 82.8497C80.2918 82.745 80.2918 82.6404 80.2918 82.5357C80.2918 82.279 80.0773 82.0647 79.8204 82.0647C79.5636 82.0647 79.3491 82.279 79.3491 82.5357C79.3491 82.6404 79.3491 82.745 79.3491 82.8497C79.3491 83.1064 79.5636 83.3207 79.8204 83.3207Z" fill="black"/>
<path d="M80.1347 85.833C79.8778 85.833 79.6633 86.0473 79.6633 86.304C79.6633 86.4087 79.6633 86.5133 79.6633 86.618C79.6633 86.8747 79.8778 87.089 80.1347 87.089C80.3915 87.089 80.606 86.8747 80.606 86.618C80.606 86.5133 80.606 86.4087 80.606 86.304C80.606 86.0473 80.3915 85.833 80.1347 85.833Z" fill="black"/>
</svg>
