<svg width="120" height="120" viewBox="0 0 120 120" fill="none" xmlns="http://www.w3.org/2000/svg">
<path d="M39.1514 41.588L39.1515 41.588C42.4939 41.1717 44.7001 41.8593 46.3706 43.027C47.9357 44.1212 49.0564 45.6497 50.2073 47.2197C50.3035 47.3509 50.3999 47.4824 50.4968 47.6139C51.7354 49.2957 53.0537 50.9849 55.0176 51.9671C57.0006 52.9588 59.5755 53.2012 63.2757 52.1565C72.7404 49.4842 83.6329 49.506 90.9037 53.2066C94.5264 55.0504 97.2329 57.7968 98.447 61.5684C99.6632 65.3463 99.4019 70.2149 96.9602 76.336C90.2799 93.0812 81.3658 101.379 71.4029 104.316C61.4178 107.259 50.2732 104.851 39.0699 99.944L39.0695 99.9438C25.9207 94.2042 22.5254 80.0941 24.1905 67.0591C25.0215 60.5537 27.1111 54.3655 29.8382 49.7074C32.581 45.0226 35.9029 41.9918 39.1514 41.588Z" fill="white" stroke="black"/>
<path d="M37.541 62.0085C35.8241 61.0467 34.5599 59.4418 34.0264 57.5466C33.493 55.6514 33.734 53.6213 34.6967 51.9028C35.6593 50.1843 37.2647 48.9184 39.1594 48.3834C41.0541 47.8485 43.0831 48.0883 44.8 49.05C46.5168 50.0118 47.7811 51.6167 48.3146 53.5119C48.848 55.407 48.607 57.4372 47.6443 59.1557C46.6817 60.8742 45.0763 62.1401 43.1816 62.6751C41.2868 63.21 39.2579 62.9702 37.541 62.0085Z" fill="white" stroke="black"/>
<path d="M39.7232 93.2993C36.4466 93.5987 37.5169 91.3997 37.1221 89.9972C36.7274 88.5947 36.9058 87.0924 37.6181 85.8208C38.3304 84.5491 40.5975 86.2167 41.9997 85.8208C43.4019 85.4249 43.8243 82.998 45.095 83.7098C46.3656 84.4215 43.8923 85.0237 47.696 87.0118C51.4998 89 47.9124 89.9167 47.2 91.1883C46.4877 92.46 45.2998 93.3968 43.8976 93.7927C42.4954 94.1886 42.9997 93 39.7232 93.2993Z" fill="black"/>
<path d="M55.815 99.371C54.5444 98.6592 56.2098 96.9025 55.815 95.5C56.4998 91.8924 52.9976 93.1641 53.7099 91.8924C53.7099 89 56.0976 88.3959 57.4997 88C58.9019 87.6041 59.9162 89.0696 61.1868 89.7814C62.4575 90.4932 63.3931 91.681 63.7879 93.0835C64.1826 94.486 64.0042 95.9883 63.2919 97.26C62.5795 98.5316 61.3916 99.4685 59.9894 99.8644C58.5872 100.26 57.0856 100.083 55.815 99.371Z" fill="black"/>
<path d="M72.7984 96.3076C71.5277 95.5959 70.5921 94.4081 70.1973 93.0056C69.8026 91.6031 71.2874 91.2918 71.9998 90.0202C72.7121 88.7485 72.5936 86.6206 73.9958 86.2247C75.398 85.8288 76.8995 86.0063 78.1702 86.7181C79.4408 87.4299 79.8805 89.5975 80.2753 91C80.6701 92.4025 80.9876 92.925 80.2753 94.1966C79.5629 95.4683 78.375 96.4051 76.9728 96.801C75.5706 97.1969 74.069 97.0194 72.7984 96.3076Z" fill="black"/>
<path d="M84.4998 83.5C83.2291 82.7882 84.405 82.9786 82.4998 81C78.905 79.4786 80.2771 76.4255 80.9894 75.1538C81.7018 73.8821 82.9998 74.5 85.4998 75.5C87.4998 76 87.1957 72.331 88.4663 73.0428C89.737 73.7546 90.6726 74.9424 91.0674 76.3449C91.4622 77.7474 91.2838 79.2497 90.5714 80.5214C89.8591 81.793 88.6711 82.7298 87.2689 83.1257C85.8667 83.5216 85.7704 84.2118 84.4998 83.5Z" fill="black"/>
<path d="M83.4998 67.5C82.2291 66.7882 83.3943 64.9025 82.9995 63.5C82.6047 62.0975 81.7992 60.7995 82.5116 59.5279C83.2239 58.2562 84.5973 58.3959 85.9995 58C87.4017 57.6041 88.7178 56.7051 89.9885 57.4168C91.2591 58.1286 92.1947 59.3164 92.5895 60.7189C92.9843 62.1214 91.2119 62.7284 90.4995 64C89.7872 65.2717 90.1933 67.1039 88.7911 67.4997C87.3889 67.8956 84.7704 68.2118 83.4998 67.5Z" fill="black"/>
<path d="M68.197 70.4958C68.4117 77.4297 63.4111 79.8764 58.1795 78.8939C60.6174 76.5662 60.7715 69.4578 65.8401 68.7256C68.0227 68.4162 68.197 70.4958 68.197 70.4958Z" fill="black"/>
<path d="M65.8554 68.7369C66.707 69.3764 67.3456 69.8561 68.1971 70.4956C68.1971 70.4956 109.622 18.9808 106.703 16.7881C103.768 14.584 65.8554 68.7369 65.8554 68.7369Z" fill="black"/>
<path d="M69.4512 64.1318C69.4598 64.1308 69.4655 64.1307 69.469 64.1309L71.5982 65.7301C71.5993 65.7334 71.6009 65.7389 71.6023 65.7474C71.6077 65.7789 71.6078 65.8321 71.5937 65.9119C71.5657 66.0708 71.4898 66.2901 71.3659 66.5574C71.1196 67.0888 70.7028 67.7694 70.1832 68.4612C69.6375 69.1878 69.0967 69.7744 68.6603 70.1486C68.4408 70.3367 68.2562 70.4638 68.1166 70.5302C68.0466 70.5635 67.9979 70.5767 67.9684 70.5797C67.9615 70.5804 67.9567 70.5805 67.9536 70.5804L65.8255 68.9821C65.8244 68.9788 65.8228 68.9733 65.8214 68.9648C65.816 68.9333 65.8159 68.8801 65.8299 68.8003C65.8579 68.6414 65.9338 68.4221 66.0577 68.1548C66.3041 67.6233 66.7209 66.9428 67.2405 66.251C67.76 65.5592 68.2974 64.9692 68.7392 64.5845C68.9613 64.3911 69.1508 64.2571 69.2956 64.1859C69.3683 64.1501 69.4195 64.1354 69.4512 64.1318ZM69.4724 64.1312C69.473 64.1313 69.4733 64.1314 69.4733 64.1314L69.4724 64.1312Z" fill="white" stroke="black" stroke-width="0.5"/>
</svg>
