<svg  viewBox="0 0 250 260" fill="none" xmlns="http://www.w3.org/2000/svg">
<path d="M37.8267 143.577C36.9754 143.918 39.0187 144.769 39.6998 144.599C45.4891 142.726 48.0432 149.537 49.4054 153.964C49.5757 154.645 51.7893 154.986 51.619 154.304C49.746 148.004 45.3188 141.193 37.8267 143.577Z" fill="black"/>
<path d="M193.623 154.12C194.985 149.863 197.88 142.541 203.669 144.414C204.35 144.584 206.394 144.073 204.861 143.733C202.137 142.882 199.242 142.882 196.688 144.584C193.623 146.628 192.261 150.714 191.239 153.949C191.069 154.46 193.453 154.801 193.623 154.12Z" fill="black"/>
<path d="M132.651 149.005C132.992 148.495 130.778 148.495 130.438 149.005C126.351 156.157 111.707 155.306 107.28 148.665C106.94 148.154 104.726 148.665 105.067 149.176C110.175 156.838 127.884 157.179 132.822 148.835L132.651 149.005Z" fill="black"/>
<path d="M151.217 80.0443C150.877 79.7037 150.536 79.3632 150.196 79.1929C149.855 78.8523 149.344 78.682 149.004 78.5118C148.493 78.3415 148.152 78.0009 147.471 77.8307C146.96 77.6604 146.45 77.4901 145.939 77.4901C145.428 77.4901 144.917 77.4901 144.236 77.4901C143.725 77.4901 143.214 77.4901 142.703 77.6604C141.682 77.8307 140.83 78.1712 139.979 78.5118C139.128 78.8523 138.787 79.3632 138.447 79.7037C138.106 80.0443 137.936 80.2145 137.936 80.2145C137.936 80.2145 138.276 80.2145 138.617 80.0443C139.128 80.0443 139.809 79.7037 140.49 79.7037C140.83 79.7037 141.171 79.7037 141.512 79.7037C141.852 79.7037 142.363 79.7037 142.703 79.7037C143.555 79.7037 144.406 79.874 145.428 79.874C146.279 80.0443 147.301 80.2145 147.982 80.5551C148.323 80.7254 148.833 80.7254 149.174 80.8956C149.514 81.0659 149.855 81.2362 150.196 81.4065C150.536 81.5768 150.877 81.747 151.047 81.9173C151.388 82.0876 151.558 82.2579 151.728 82.2579C152.069 82.4281 152.409 82.5984 152.409 82.5984C152.409 82.5984 152.239 82.4281 152.069 81.9173C151.898 81.5768 151.558 80.7254 151.047 80.2145L151.217 80.0443Z" fill="black"/>
<path d="M96.394 124.324C93.1588 120.748 85.8369 120.067 81.2395 119.727L80.8989 120.067C84.8153 123.302 91.456 124.665 96.394 124.324Z" fill="black"/>
<path d="M153.431 118.696L153.09 118.355C148.493 118.696 141.171 119.377 137.936 122.953C142.874 123.293 149.515 121.931 153.431 118.696Z" fill="black"/>
<path d="M128.909 119.219C128.909 106.278 139.467 95.7211 152.407 95.7211C165.348 95.7211 176.076 106.278 176.076 119.219C176.076 132.16 165.519 142.717 152.407 142.717C139.467 142.717 128.909 132.16 128.909 119.219ZM61.1399 119.219C61.1399 106.278 71.697 95.7211 84.8082 95.7211C97.7491 95.7211 108.476 106.278 108.476 119.219C108.476 132.16 97.9194 142.717 84.8082 142.717C71.8673 142.717 61.1399 132.16 61.1399 119.219ZM134.869 211.168C136.572 213.892 139.637 215.425 142.702 216.446C142.702 216.446 142.702 216.446 142.531 216.616C142.021 216.957 141.68 217.298 141.169 217.638C140.829 217.979 140.318 218.149 139.807 218.489C137.083 220.192 134.188 221.554 130.953 222.746C125.844 224.619 120.055 224.79 114.436 223.768C109.668 222.746 105.071 220.703 101.325 218.149C98.7708 216.446 101.495 216.276 103.028 215.425C104.901 214.573 106.433 213.041 107.795 211.508C111.201 207.251 113.585 194.651 108.647 191.075C107.795 190.394 106.774 190.224 105.752 190.224C103.368 189.543 100.303 189.713 97.4086 189.372C96.3869 189.202 95.3653 189.032 94.3436 188.862C88.0434 187.67 82.0838 185.116 76.4647 181.71C68.1212 176.432 60.6291 169.11 55.5209 161.277C55.3506 160.936 55.01 160.936 54.4992 160.766C54.1587 160.596 53.6478 160.596 53.4776 160.766C52.2856 160.936 51.0937 161.107 49.9018 160.937C49.5612 160.937 49.2207 160.937 48.8801 160.937C48.7099 160.937 48.5396 160.937 48.3693 160.937C43.4313 160.085 39.1745 156.68 36.2798 152.423C34.4067 149.358 33.5554 145.101 34.577 141.695C35.769 137.779 39.3447 135.225 44.453 136.247C44.6233 136.247 45.3044 136.417 45.3044 136.076C45.3044 136.076 45.4746 135.906 45.3044 135.906C44.9638 134.714 44.7935 133.522 44.6233 132.33C44.7935 132.33 44.7935 132.33 44.9638 132.33C45.3044 132.33 45.4746 132.16 45.8152 131.99L57.5642 119.56H58.5858C58.5858 133.692 70.1645 145.271 84.4676 145.271C98.6005 145.271 110.009 134.033 110.179 120.07C110.86 119.389 112.733 117.687 115.117 116.665C115.287 120.752 116.309 125.008 119.204 127.222C121.417 128.925 125.845 129.776 126.526 132.671C127.718 137.268 120.736 141.866 116.82 138.12C116.309 137.609 114.096 138.12 114.606 138.46C119.204 142.887 126.015 141.014 128.569 135.225C130.442 130.968 126.185 129.606 123.29 128.073C119.034 125.86 117.671 120.752 117.501 115.984C118.012 115.814 118.693 115.814 119.204 115.814C121.928 115.814 124.312 117.346 126.526 120.07C126.696 134.033 138.275 145.271 152.237 145.271C166.54 145.271 178.119 133.692 178.119 119.56H179.141L190.379 131.819C190.549 131.99 190.89 132.16 191.23 132.16C191.571 132.16 191.741 131.99 191.911 131.819C192.422 131.479 192.422 130.798 191.911 130.287L180.673 117.857V115.473H177.608C175.735 103.043 165.008 93.6778 152.067 93.6778C138.785 93.6778 127.718 103.724 126.355 116.665C124.142 114.622 121.588 113.43 119.034 113.43C118.352 113.43 117.842 113.43 117.16 113.6C117.16 112.578 117.331 111.557 117.331 110.705C117.331 110.024 115.117 110.024 114.947 110.705C114.777 111.727 114.777 112.919 114.777 114.111C112.733 114.792 111.031 115.984 109.839 117.006C108.647 103.894 97.5788 93.6778 84.1271 93.6778C71.1862 93.6778 60.4588 103.213 58.5858 115.473H55.5209V117.857L43.9422 130.117C42.9205 121.433 43.4313 112.408 44.9638 104.065C45.1341 103.384 45.1341 102.702 45.3044 102.192C45.4746 101.681 45.6449 101.17 45.6449 100.659C45.9855 99.4672 46.1557 98.4455 46.4963 97.2536C46.4963 97.0833 46.6666 96.9131 46.6666 96.5725C53.137 74.7773 69.6537 59.112 90.9381 50.9388C85.8298 61.3255 79.6999 72.3934 71.0159 79.8855C70.8456 80.0558 70.8456 80.0558 70.8456 80.0558C70.5051 80.3964 71.8673 80.7369 72.2078 80.7369C72.3781 80.7369 72.7187 80.9072 72.7187 80.9072C76.9755 80.7369 81.2324 80.0558 85.319 79.2044C84.9785 79.545 84.6379 79.8855 84.2974 80.0558C83.7865 80.7369 83.446 81.418 83.2757 81.7586C83.1054 82.2694 83.1054 82.4397 83.1054 82.4397C83.1054 82.4397 83.2757 82.2694 83.6163 81.9288C83.9568 81.5883 84.4676 81.418 85.1487 81.0775C86.5109 80.3964 88.2137 79.8855 90.0867 79.3747C90.9381 79.2044 91.9598 79.0341 92.8111 78.8639C93.6625 78.6936 94.5139 78.6936 95.195 78.6936C95.5355 78.6936 95.8761 78.6936 96.2166 78.8639C96.5572 78.8639 96.7275 78.8639 97.068 79.0342C97.5788 79.2044 97.7491 79.2044 97.7491 79.2044C97.7491 79.2044 97.5788 79.0342 97.2383 78.5233C97.068 78.3531 96.8977 78.1828 96.5572 78.0125C96.2166 77.8422 95.8761 77.672 95.5355 77.5017C94.8544 77.1611 94.003 76.9909 93.1517 76.8206C97.9194 75.2881 102.517 73.2448 106.774 70.6907C105.582 72.0529 104.39 73.2448 103.198 74.607C103.198 74.607 103.028 74.7773 103.198 74.7773C102.857 75.2881 104.049 75.4584 104.22 75.4584C104.39 75.4584 104.56 75.6286 104.73 75.6286C113.585 76.3098 122.098 74.607 129.591 71.0312C140.488 66.0932 147.98 57.2389 151.556 46.0008C155.132 61.8364 166.37 75.6286 181.865 80.7369C181.865 80.7369 182.035 80.7369 182.376 80.9072C182.546 80.9072 183.397 81.0775 183.568 80.7369L183.738 80.5666C183.568 79.545 183.568 78.6936 183.397 77.6719C192.422 95.2103 198.211 115.984 195.487 135.395C195.487 135.736 195.998 135.906 196.679 136.076C196.849 136.076 197.02 136.076 197.19 136.076C200.595 136.076 204.341 136.076 206.385 138.63C208.598 142.206 207.747 147.996 205.704 151.912C205.704 152.082 205.533 152.252 205.363 152.423C205.193 152.763 204.852 153.104 204.682 153.444C201.276 158.382 194.806 161.447 188.846 160.937C188.676 160.937 188.506 160.937 188.506 160.937C188.165 160.937 187.654 160.766 187.314 160.766C186.973 160.766 186.462 160.596 186.292 160.937C184.249 164.172 181.865 167.237 179.141 169.961C178.8 170.302 178.289 170.812 177.949 171.153C177.438 171.664 177.097 172.004 176.586 172.515C171.308 177.453 165.178 181.54 158.708 184.775C155.472 186.307 152.237 187.499 149.002 188.351C144.915 189.372 138.785 188.521 134.699 190.224C134.188 190.394 133.677 190.564 133.166 190.905C127.547 194.14 131.123 207.081 133.847 211.338L134.869 211.168ZM148.151 217.298C140.829 225.3 130.782 229.047 119.885 228.876C113.755 228.876 107.795 227.174 102.347 224.449C99.7924 223.257 97.4086 221.554 95.195 219.852C91.4489 216.787 95.0247 217.127 97.7491 216.957C103.709 221.895 110.86 224.619 118.182 224.96C119.544 225.13 120.907 225.3 122.269 225.3C127.036 225.471 131.634 223.938 136.061 222.236C138.275 221.384 140.488 220.022 142.531 218.83C144.745 217.468 146.107 217.298 147.98 217.298H148.151ZM240.78 109.003C237.715 102.192 233.799 95.8914 229.883 89.7615C224.604 81.418 221.028 73.0745 218.134 63.7094C213.706 49.4063 206.555 36.9762 195.998 26.2489C176.076 6.32667 147.469 -0.484337 120.055 0.0264884C90.0867 0.537314 61.821 12.116 43.7719 36.6356C34.2365 49.5766 31.6823 64.5608 25.3822 78.8639C22.1469 86.1857 17.0387 92.6562 12.9521 99.6374C8.6952 106.959 5.45997 115.132 2.5653 122.965C-1.01048 133.352 -3.05378 156.68 11.9304 159.234C13.9737 166.556 19.2523 171.834 26.7444 173.707C26.7444 173.707 26.9146 173.707 27.2552 173.707C37.3014 181.71 52.2856 184.945 64.2049 187.499C68.6321 188.351 72.0376 189.032 75.6133 192.267C76.9755 193.459 78.6783 194.14 80.5513 194.481C83.446 194.992 86.5109 194.651 89.4056 194.14C96.3869 193.118 102.517 194.31 109.158 196.183C110.009 204.527 106.944 213.381 98.0897 215.765C97.9194 215.765 97.9194 215.765 97.7491 215.765C95.3653 216.106 93.1517 216.276 90.7678 216.446C90.4273 216.446 90.257 216.616 90.4273 216.957C86.3407 216.957 82.4243 217.127 78.8486 218.83C66.759 224.449 65.9076 243.009 63.3535 253.907C63.013 255.099 76.2944 257.482 77.6566 257.482C104.73 260.207 131.974 260.547 159.048 258.674C160.921 258.504 180.333 255.78 179.822 253.907C177.268 243.009 176.416 224.449 164.327 218.83C160.41 216.957 155.813 217.127 151.386 216.957C151.045 216.616 150.024 216.446 149.853 216.446C148.321 216.446 145.596 215.254 144.234 215.765C135.55 213.211 134.188 204.527 134.358 196.354C141.34 194.14 148.151 195.162 154.962 192.267C159.218 190.394 163.816 190.224 168.413 189.372C173.351 188.521 178.46 187.84 183.397 186.989C196.509 185.116 212.515 182.391 223.072 173.707C223.412 173.707 223.753 173.707 223.923 173.707C230.053 172.175 234.139 167.918 236.864 162.469C238.396 159.234 238.907 160.085 241.461 158.382C243.845 156.85 245.378 154.807 246.74 152.252C254.402 138.29 246.91 122.284 241.121 109.173L240.78 109.003Z" fill="black"/>
<path d="M81.0726 226.807C79.8806 227.488 78.6887 228.68 80.0509 230.042C81.0726 231.063 82.7753 231.574 84.3078 231.915C84.8186 232.085 85.4997 232.085 86.0106 231.745C86.5214 231.404 85.8403 231.063 85.67 231.063C84.6484 230.893 83.4564 230.553 82.6051 229.871C81.4131 229.02 82.4348 227.998 83.2862 227.317C83.797 226.977 83.1159 226.807 82.9456 226.636C82.4348 226.466 81.7537 226.466 81.2429 226.807H81.0726Z" fill="#FEFEFE"/>
<path d="M79.8692 242.836C82.253 241.984 85.4883 244.028 85.1477 246.582C85.1477 247.263 87.5316 247.263 87.5316 246.582C87.8721 242.155 81.2314 241.133 78.1664 242.325C77.6556 242.495 77.8258 242.836 78.1664 243.006C78.6772 243.176 79.3583 243.176 79.8692 243.006V242.836Z" fill="#FEFEFE"/>
<path d="M86.1708 255.61C87.1925 255.269 87.8736 254.929 88.725 254.248C90.2574 253.226 91.6197 252.204 93.4927 253.396C94.0035 253.737 96.2171 253.737 95.1954 253.056C93.4927 252.034 91.7899 251.523 89.7466 251.864C87.7033 252.375 86.5114 254.077 84.4681 254.588C83.2762 254.929 85.4897 255.61 86.0006 255.44L86.1708 255.61Z" fill="#FEFEFE"/>
<path d="M96.7425 242.141C98.4453 243.674 101.68 243.163 103.043 241.46C103.383 240.949 101.17 240.609 100.829 241.12C100.318 241.63 99.4669 242.312 98.7858 241.801C98.275 241.46 96.0614 241.63 96.7425 242.141Z" fill="#FEFEFE"/>
<path d="M68.9818 239.953C70.5143 241.485 73.5793 239.953 74.7712 238.761C75.4523 238.08 73.2387 237.909 72.7279 238.42C72.5576 238.59 72.2171 238.761 71.8765 239.101C71.7062 239.272 71.536 239.272 71.3657 239.442C71.1954 239.442 71.1954 239.612 71.0251 239.612C70.6846 239.782 70.6846 239.782 71.0251 239.782C70.6846 239.442 70.0035 239.442 69.4927 239.442C69.3224 239.442 68.3007 239.782 68.6413 240.123L68.9818 239.953Z" fill="#FEFEFE"/>
<path d="M73.9192 254.759C74.7706 253.567 75.7923 253.227 76.9842 254.078C77.495 254.419 79.7086 253.908 79.0275 253.397C76.8139 252.035 73.2381 252.376 71.7057 254.589C71.3651 255.1 73.5787 255.27 73.9192 254.759Z" fill="#FEFEFE"/>
<path d="M97.2372 229.555C98.9399 230.237 100.643 229.385 102.005 228.364C102.516 228.023 100.472 227.001 99.9616 227.342C99.621 227.682 98.0885 228.874 97.5777 228.704C97.4074 228.534 96.3858 228.364 96.3858 228.704C96.2155 229.045 97.0669 229.385 97.4074 229.555H97.2372Z" fill="#FEFEFE"/>
<path d="M85.4918 221.027C87.5351 221.197 89.7487 220.686 91.6217 219.665C91.9622 219.494 91.9622 219.154 91.4514 218.984C90.9406 218.813 90.2595 218.984 89.7487 219.324C88.727 219.835 87.5351 220.175 86.5134 220.175C86.0026 220.175 85.3215 220.175 84.981 220.686C84.6404 221.027 85.1512 221.197 85.4918 221.197V221.027Z" fill="#FEFEFE"/>
<path d="M114.434 252.882C115.796 252.882 116.988 253.904 117.67 254.926C118.01 255.607 120.224 255.436 119.883 254.926C118.861 252.712 116.137 251.69 113.753 251.861C112.221 252.031 113.242 252.882 114.264 252.882H114.434Z" fill="#FEFEFE"/>
<path d="M107.64 259.538C108.15 258.006 109.172 256.473 111.045 255.962C112.578 255.622 111.386 254.941 110.364 255.111C107.98 255.792 106.277 257.325 105.426 259.368L107.64 259.538Z" fill="#FEFEFE"/>
<path d="M112.404 232.938C113.937 235.663 118.704 237.536 121.429 235.493C122.11 234.982 119.896 234.641 119.385 234.982C117.853 236.174 115.469 234.13 114.618 232.768C114.277 232.087 112.064 232.428 112.404 232.938Z" fill="#FEFEFE"/>
<path d="M107.113 246.764C110.178 248.637 114.605 245.913 115.967 243.018C116.308 242.507 113.924 242.507 113.753 243.188C113.072 244.721 110.859 246.934 109.156 245.913C108.645 245.572 106.432 246.253 107.283 246.764H107.113Z" fill="#FEFEFE"/>
<path d="M131.638 235.336C133.851 234.996 136.406 234.315 138.279 235.847C138.789 236.188 141.003 236.017 140.322 235.336C137.768 233.123 134.022 233.804 130.957 234.315C129.424 234.485 130.616 235.336 131.638 235.166V235.336Z" fill="#FEFEFE"/>
<path d="M131.294 248.63C132.486 248.46 133.849 249.822 134.53 250.503C134.87 250.844 135.551 251.014 136.062 251.014C136.403 251.014 136.914 250.844 136.573 250.503C134.7 248.801 132.146 247.438 129.592 247.779C129.081 247.779 129.081 248.29 129.421 248.46C129.932 248.801 130.443 248.801 131.124 248.801L131.294 248.63Z" fill="#FEFEFE"/>
<path d="M126.524 256.636C127.886 259.701 134.187 260.042 136.06 257.317C136.4 256.636 134.187 256.126 133.846 256.636C132.824 258.169 129.759 259.02 128.908 256.977C128.567 256.296 126.354 256.126 126.694 256.807L126.524 256.636Z" fill="#FEFEFE"/>
<path d="M125.51 242.849C128.745 243.53 130.448 240.465 130.959 237.74C131.129 237.23 128.745 237.059 128.575 237.74C128.405 238.592 128.064 239.443 127.724 240.124C127.553 240.465 127.383 240.805 127.043 241.146C126.872 241.316 126.872 241.487 126.702 241.487C126.361 241.827 126.021 241.827 126.702 241.997C126.191 241.827 125.51 241.827 125.17 242.168C124.659 242.508 125.34 242.678 125.68 242.849H125.51Z" fill="#FEFEFE"/>
<path d="M149.176 255.072C150.368 254.732 151.901 255.072 152.582 256.264C152.922 256.775 155.136 257.286 154.625 256.435C153.433 254.221 149.687 253.199 147.474 253.88C146.622 254.051 148.665 255.243 149.176 255.072Z" fill="#FEFEFE"/>
<path d="M144.758 244.864C147.482 247.248 152.42 245.715 154.293 242.991C154.634 242.48 152.42 241.969 152.079 242.65C151.058 244.183 148.504 246.056 146.801 244.523C146.29 244.183 144.077 244.353 144.758 244.864Z" fill="#FEFEFE"/>
<path d="M146.444 232.605C147.295 231.753 150.19 229.71 151.212 230.732C151.723 231.242 153.936 231.072 153.255 230.391C150.871 228.007 146.103 230.221 144.23 232.094C143.89 232.434 145.933 232.945 146.444 232.605Z" fill="#FEFEFE"/>
<path d="M153.43 217.129C153.089 219.513 153.26 221.727 155.643 223.089C156.154 223.429 156.835 223.429 157.346 223.259C157.857 223.089 157.857 222.748 157.346 222.578C155.473 221.556 155.473 219.173 155.814 217.3C154.962 217.3 154.281 217.3 153.43 217.3V217.129Z" fill="#FEFEFE"/>
<path d="M162.634 228.691C165.358 229.032 170.296 229.202 168.934 233.289C168.764 233.97 170.977 234.14 171.148 233.459C172.85 228.521 166.72 228.18 163.315 227.669C162.293 227.499 161.101 228.351 162.634 228.521V228.691Z" fill="#FEFEFE"/>
<path d="M162.297 239.25C159.573 242.996 163.319 246.06 166.895 246.571C167.235 246.571 168.086 246.571 168.427 246.231C168.768 245.89 167.746 245.72 167.576 245.72C164.34 245.379 162.467 242.314 164.511 239.59C164.851 239.079 162.638 238.739 162.297 239.25Z" fill="#FEFEFE"/>
<path d="M163.656 255.582C166.04 256.774 169.616 257.284 172 255.752C172.681 255.241 170.467 254.73 169.956 255.071C168.594 255.922 166.721 255.922 165.359 255.241C164.848 255.071 164.167 254.901 163.656 255.071C163.145 255.241 163.145 255.582 163.656 255.752V255.582Z" fill="#FEFEFE"/>
<path d="M173.857 246.417C174.879 245.055 175.73 243.863 176.922 242.671C177.263 242.331 175.22 241.82 174.709 242.331C173.517 243.523 172.666 244.714 171.644 246.077C171.303 246.587 173.517 246.928 173.857 246.417Z" fill="#FEFEFE"/>
<path d="M165.684 219.665C166.536 221.538 168.409 223.581 170.452 224.092C169.09 222.389 167.557 220.857 165.684 219.665Z" fill="#FEFEFE"/>
<path d="M159.567 258.68C159.567 257.658 159.567 256.636 159.737 255.615C159.737 255.104 157.523 255.104 157.353 255.785C157.183 256.807 157.183 257.828 157.183 258.85L158.715 258.68C158.886 258.68 159.056 258.68 159.567 258.68Z" fill="#FEFEFE"/>
<path d="M155.997 233.656C155.997 235.358 154.294 237.231 152.591 237.572C151.059 237.913 152.932 238.594 153.783 238.423C155.826 237.913 158.551 236.04 158.38 233.656C158.38 232.975 155.997 232.804 155.997 233.485V233.656Z" fill="#FEFEFE"/>
<path d="M136.917 226.663C139.812 228.365 144.239 227.855 146.112 224.96C146.452 224.279 144.239 223.768 143.898 224.279C142.877 225.982 139.982 227.514 138.279 226.152C137.768 226.322 137.428 226.492 136.917 226.663Z" fill="#FEFEFE"/>
<path d="M70.0073 227.499C71.7101 227.328 73.4128 226.647 74.4345 225.455C74.775 224.944 72.5614 224.604 72.2209 225.115C71.8803 225.455 71.3695 225.966 70.8587 226.136C70.6884 226.477 70.3479 226.988 70.1776 227.328L70.0073 227.499Z" fill="#FEFEFE"/>
<path d="M63.8719 250.512C63.8719 251.194 63.8719 251.875 63.5313 252.556C63.361 253.067 65.5746 253.577 65.9152 252.896C66.7666 251.023 65.9152 248.639 64.553 246.937C64.3827 248.129 64.0421 249.321 63.8719 250.512Z" fill="#FEFEFE"/>
<path d="M89.5797 231.763C88.3878 234.487 87.8769 238.574 90.7716 240.276C91.2824 240.447 91.7933 240.787 92.3041 240.617C92.8149 240.447 92.3041 239.936 92.1338 239.936C89.75 238.744 90.9419 234.487 91.7933 232.614C91.9635 232.103 89.75 231.252 89.5797 231.933V231.763Z" fill="#FEFEFE"/>
<path d="M99.1242 259.189C98.9539 258.167 98.4431 257.316 97.5917 256.634C97.2512 256.294 96.5701 256.124 96.0592 256.124C95.889 256.124 95.0376 256.294 95.5484 256.634C96.2295 257.316 96.7403 258.167 96.9106 259.189C97.5917 259.189 98.4431 259.359 99.1242 259.359V259.189Z" fill="#FEFEFE"/>
</svg>
