<svg width="354" height="349" viewBox="0 0 354 349" fill="none" xmlns="http://www.w3.org/2000/svg">
<mask id="mask0" mask-type="alpha" maskUnits="userSpaceOnUse" x="0" y="0" width="354" height="349">
<rect width="354" height="349" rx="140" fill="#C4C4C4"/>
</mask>
<g mask="url(#mask0)">
<path d="M262.946 139.857C255.108 121.17 242.046 103.895 224.915 94.1412C217.12 89.6744 208.683 86.9397 200.118 85.9825C199.861 85.2077 199.518 84.4328 199.09 83.7036C195.492 77.7783 188.34 75.4538 182.473 79.0545C174.55 83.9315 167.226 89.6744 160.502 96.1011C158.661 97.4685 156.905 99.0181 155.192 100.568C154.121 101.571 153.307 102.801 152.708 104.169C135.106 123.95 122.6 148.882 115.576 175.181C109.752 196.922 98.8285 224.393 98.9998 247C102 266 108.981 266.384 116.347 276.184C122.814 284.753 133.478 289.63 143.457 291.407C154.721 293.413 165.556 292.547 176.777 290.724C181.745 289.903 186.713 288.901 191.638 287.943C194.036 287.488 196.392 287.032 198.79 286.622C199.775 286.439 200.76 286.303 201.788 286.12C201.617 286.166 204.015 285.847 204.529 285.756C215.536 284.525 226.628 286.166 237.549 284.069C247.314 282.2 256.522 276.093 262.86 268.071C276.694 250.569 280.163 227.414 278.193 205.217C276.308 182.929 271.597 160.413 262.946 139.857Z" fill="black"/>
<path d="M205.981 228.575C205.981 228.575 190.202 260.567 230.027 266.383C230.027 284.371 156.277 284.371 156.277 266.383C193.152 260.567 177.304 228.575 177.304 228.575H205.981Z" fill="white"/>
<path d="M263.968 148.845C263.968 148.845 268.031 137.604 277.992 138.557C287.954 139.414 286.117 176.757 260.874 177.52" fill="white"/>
<path d="M118.795 148.845C118.795 148.845 114.733 137.604 104.771 138.557C94.809 139.414 96.6466 176.757 121.89 177.52" fill="white"/>
<path d="M191.817 53.8684C190.56 53.8684 189.302 53.8684 188.045 53.9637C150.615 55.4879 121.019 85.7814 119.085 122.648C116.474 171.042 126.777 222.758 191.43 234.201C256.577 222.758 266.386 171.137 263.775 122.743C261.744 84.6383 230.407 54.0589 191.817 53.8684Z" fill="white"/>
<path d="M121.89 180.187C105.738 179.71 96.9364 165.23 96.4528 151.227C96.1627 142.367 99.3543 136.366 104.577 135.89C116.473 134.842 121.213 147.416 121.406 147.988L116.28 149.798L118.795 148.941L116.28 149.798C116.183 149.417 112.798 140.557 105.061 141.224C103.61 141.319 101.676 144.844 101.869 151.036C102.159 159.038 106.608 174.376 121.986 174.852L121.89 180.187Z" fill="black"/>
<path d="M260.873 180.187L260.679 174.852C276.058 174.376 280.603 159.038 280.797 151.036C280.99 144.844 279.056 141.319 277.605 141.224C269.868 140.557 266.482 149.703 266.386 149.798L261.26 147.988C261.453 147.416 266.192 134.842 278.089 135.89C283.5 138 284.693 142.641 284.5 151.5C284.113 165.504 276.928 179.71 260.873 180.187Z" fill="black"/>
<path d="M200.345 182.799C201.62 179.925 199.798 177.77 197.247 176.512C189.231 172.561 187.773 165.735 188.502 157.113C188.502 156.395 186.133 156.035 185.951 156.754C185.405 162.861 185.769 170.764 191.053 174.896C193.603 176.871 197.794 176.871 197.976 180.823C198.158 185.493 191.599 189.984 187.591 186.032C187.044 185.493 184.676 185.493 185.405 186.212C190.324 191.061 197.612 189.086 200.162 182.979L200.345 182.799Z" fill="black"/>
<path d="M163.539 126.582C164.086 127.121 166.454 126.402 165.907 126.043C161.353 122.451 150.421 124.247 147.87 129.635C147.506 130.354 150.057 130.354 150.239 129.635C152.243 125.684 159.895 123.708 163.539 126.582Z" fill="black"/>
<path id="smile" d="M204.717 197.349C205.082 196.63 202.713 196.45 202.349 196.989C197.976 204.533 182.307 204.174 177.57 196.989C177.206 196.45 174.655 196.63 175.202 197.169C180.668 205.252 199.798 205.97 204.899 197.169L204.717 197.349Z" fill="black"/>
<path d="M212.593 126.768C212.958 126.768 213.322 126.768 213.686 126.768C214.051 126.768 214.597 126.768 214.962 126.768C215.873 126.768 216.784 126.947 217.877 126.947C218.788 127.127 219.881 127.306 220.61 127.666C220.974 127.845 221.521 127.845 221.885 128.025C222.25 128.204 222.614 128.384 222.978 128.564C223.343 128.743 223.707 128.923 223.889 129.103C224.254 129.282 224.436 129.462 224.618 129.462C224.982 129.641 225.347 129.821 225.347 129.821C225.347 129.821 225.347 129.641 224.982 129.103C224.8 128.743 224.436 127.845 223.889 127.306C223.525 126.947 223.161 126.588 222.796 126.408C222.432 126.049 221.885 125.869 221.521 125.69C220.974 125.51 220.61 125.151 219.881 124.971C219.334 124.792 218.788 124.612 218.241 124.612C217.695 124.612 217.148 124.612 216.419 124.612C215.873 124.612 215.326 124.612 214.78 124.792C213.686 124.971 212.776 125.331 211.865 125.69C210.954 126.049 210.589 126.588 210.225 126.947C209.86 127.306 209.678 127.486 209.678 127.486C209.678 127.486 210.043 127.486 210.407 127.306C210.954 127.306 211.5 126.947 212.411 126.947L212.593 126.768Z" fill="black"/>
<path d="M147.323 176.534C146.776 176.534 146.412 176.893 146.412 177.432C146.412 177.971 146.776 178.33 147.323 178.33C147.869 178.33 148.234 177.971 148.234 177.432C148.234 176.893 147.869 176.534 147.323 176.534Z" fill="black"/>
<path d="M149.702 179.912C149.156 179.912 148.791 180.271 148.791 180.81C148.791 181.349 149.156 181.708 149.702 181.708C150.249 181.708 150.613 181.349 150.613 180.81C150.613 180.271 150.249 179.912 149.702 179.912Z" fill="black"/>
<path d="M153.528 177.412C152.982 177.412 152.617 177.771 152.617 178.31C152.617 178.849 152.982 179.208 153.528 179.208C154.075 179.208 154.439 178.849 154.439 178.31C154.439 177.771 154.075 177.412 153.528 177.412Z" fill="black"/>
<path d="M226.589 178.33C227.135 178.33 227.5 177.971 227.5 177.432C227.5 176.893 227.135 176.534 226.589 176.534C226.042 176.534 225.678 176.893 225.678 177.432C225.678 177.971 226.042 178.33 226.589 178.33Z" fill="black"/>
<path d="M224.031 181.532C224.577 181.532 224.942 181.173 224.942 180.634C224.942 180.095 224.577 179.736 224.031 179.736C223.484 179.736 223.12 180.095 223.12 180.634C223.12 181.173 223.484 181.532 224.031 181.532Z" fill="black"/>
<path d="M220.206 177.412C219.659 177.412 219.295 177.771 219.295 178.31C219.295 178.849 219.659 179.208 220.206 179.208C220.752 179.208 221.117 178.849 221.117 178.31C221.117 177.771 220.752 177.412 220.206 177.412Z" fill="black"/>
<path d="M255.14 164.891H252.19V161.982H255.14V164.891Z" fill="black"/>
<path d="M255.14 161.982V164.891H252.19V161.982H255.14ZM255.14 161.982C255.14 161.982 261.04 156.166 263.99 153.257C264.494 152.761 264.912 152.349 265.258 152.008M265.258 152.008C266.94 150.349 266.94 150.349 266.94 150.349L265.258 152.008Z" stroke="black"/>
<path d="M125.931 164.891H128.291V162.564H125.931V164.891Z" fill="black"/>
<path d="M125.931 162.564V164.891H128.291V162.564H125.931ZM125.931 162.564C125.931 162.564 121.211 157.911 118.851 155.584C118.448 155.187 118.113 154.857 117.836 154.584M117.836 154.584C116.491 153.257 116.491 153.257 116.491 153.257L117.836 154.584Z" stroke="black"/>
<path d="M252.744 164.89C252.744 179.523 240.71 191.396 225.851 191.396C210.992 191.396 198.958 179.523 198.958 164.89C198.958 150.258 210.992 138.384 225.851 138.384C240.71 138.384 252.744 150.258 252.744 164.89Z" stroke="black"/>
<path d="M181.523 164.89C181.523 179.523 169.489 191.396 154.63 191.396C139.77 191.396 127.737 179.523 127.737 164.89C127.737 150.258 139.77 138.384 154.63 138.384C169.489 138.384 181.523 150.258 181.523 164.89Z" stroke="black"/>
<path d="M180.963 164.891C189.398 156.575 195.721 161.755 199.255 164.891" stroke="black"/>
<path d="M168.47 168.278C165.009 164.506 157.174 163.788 152.255 163.429L151.891 163.788C156.081 167.201 163.187 168.638 168.47 168.278Z" fill="black"/>
<path d="M229.5 162.342L229.135 161.982C224.216 162.342 216.382 163.06 212.92 166.832C218.204 167.191 225.309 165.754 229.5 162.342Z" fill="black"/>
<path d="M266.778 267.648L266.778 267.648C270.85 268.779 274.548 272.216 277.893 277.5C281.231 282.774 284.173 289.821 286.76 298.047C291.934 314.497 295.66 335.568 298.328 356.369C300.995 377.166 302.601 397.672 303.54 412.983C304.369 426.487 304.678 435.939 304.739 437.982L263.726 445.529L260.936 345.683L260.935 345.669L259.936 345.683V364.12C258.903 372.162 256.413 382.223 250.837 393.134C248.47 397.753 247.536 405.262 247.431 413.837C247.325 422.438 248.054 432.2 249.069 441.386C250.085 450.574 251.39 459.196 252.441 465.521C252.966 468.684 253.428 471.273 253.759 473.071C253.924 473.971 254.056 474.672 254.148 475.149C254.157 475.196 254.165 475.241 254.173 475.283H191.614H119.534C119.54 475.209 119.546 475.128 119.553 475.04C119.592 474.529 119.649 473.777 119.716 472.814C119.852 470.89 120.034 468.125 120.219 464.762C120.59 458.035 120.975 448.911 121.031 439.325C121.088 429.741 120.817 419.684 119.873 411.094C119.401 406.799 118.759 402.861 117.903 399.528C117.049 396.202 115.972 393.44 114.608 391.526L114.201 391.816L114.608 391.526C111.622 387.335 109.654 381.625 108.37 375.587C107.089 369.56 106.497 363.248 106.238 357.875V344.218L105.28 344.017L70.8681 422.573L34.4609 403.692C34.5398 403.456 34.6529 403.119 34.7988 402.686C35.11 401.765 35.5704 400.41 36.1676 398.68C37.3619 395.22 39.1028 390.259 41.2888 384.252C45.6611 372.239 51.8129 356.048 58.9323 339.339C66.0526 322.627 74.1358 305.407 82.3697 291.33C86.4866 284.291 90.6358 278.047 94.7151 273.048C98.7994 268.043 102.789 264.317 106.58 262.278C120.825 254.616 130.57 254.243 138.405 256.36C142.34 257.423 145.818 259.12 149.176 260.884C149.743 261.182 150.307 261.482 150.87 261.781C153.606 263.236 156.308 264.674 159.121 265.739C159.131 265.746 159.143 265.754 159.155 265.763C159.215 265.807 159.303 265.869 159.419 265.95C159.651 266.111 159.994 266.342 160.444 266.628C161.345 267.2 162.673 267.989 164.393 268.864C167.832 270.615 172.842 272.714 179.134 274.113C191.715 276.91 209.403 276.904 229.875 265.764C235.519 264.338 240.345 263.591 245.935 263.801C251.553 264.013 257.966 265.192 266.778 267.648Z" fill="black" stroke="white"/>
<path d="M284.718 117.617L284.719 117.618C285.183 122.263 285.028 127.899 284.834 133.554C284.821 133.953 284.807 134.352 284.793 134.751C284.61 139.996 284.429 145.196 284.717 149.555C282.482 188.406 288.194 211.324 297.606 230.846C298.116 232.318 298.643 233.785 299.17 235.25C301.048 240.478 302.922 245.693 304.01 251.126C306.177 262.759 304.517 276.276 294.703 284.114L294.703 284.115C289.589 288.212 283.248 289.988 276.633 290.534C270.017 291.079 263.14 290.394 256.962 289.58L256.943 289.722L256.961 289.58C245.289 288.055 234.029 284.802 223.389 280.023L223.369 280.014L223.347 280.011C219.806 279.556 216.539 278.196 214.14 274.93L214.14 274.93C213.752 274.406 213.713 273.947 213.851 273.54L213.861 273.509L213.858 273.476C213.658 271.659 214.811 269.633 216.563 268.844L216.58 268.837L216.594 268.825C216.844 268.628 217.134 268.44 217.517 268.345C218.975 268.037 220.381 267.576 221.735 266.961L221.735 266.961L221.744 266.956C223.923 265.782 225.947 264.454 227.867 262.973C231.384 260.259 233.856 256.931 235.958 253.349C237.009 251.559 237.968 249.704 238.919 247.832C239.075 247.525 239.231 247.217 239.387 246.91C240.182 245.339 240.98 243.761 241.833 242.199L241.838 242.19L241.842 242.181C245.136 233.46 246.57 223.407 247.947 213.756C248.363 210.838 248.774 207.956 249.229 205.159L249.229 205.159C252.181 186.763 250.937 168.168 248.092 149.837L248.089 149.818L248.082 149.802C245.751 144.245 242.903 138.842 239.588 133.745L239.588 133.744C234.586 126.143 228.356 120.025 221.679 114.358C218.418 111.59 215.05 108.929 211.666 106.256L211.426 106.066C207.961 103.329 204.482 100.575 201.084 97.6763L201.083 97.6755C197.574 94.7291 194.27 91.427 191.277 87.8203C187.285 83.0132 179.881 83.117 175.995 87.9748C174.963 89.2452 173.878 90.5158 172.794 91.7357L172.789 91.7412L172.785 91.7471C170.375 95.0621 168.239 98.6178 166.163 102.181C165.77 102.857 165.378 103.533 164.988 104.208C163.318 107.093 161.661 109.954 159.903 112.673L159.903 112.674C153.854 122.138 147.444 131.347 140.671 140.353L140.671 140.354C136.685 145.7 132.476 150.863 128.263 156.032C127.504 156.962 126.746 157.893 125.988 158.825L125.966 158.852L125.958 158.887C125.076 162.879 124.277 166.896 123.478 170.91C122.166 177.503 120.856 184.088 119.185 190.541C118.136 194.573 117.045 198.602 115.954 202.632C113.603 211.315 111.249 220.009 109.306 228.771L109.304 228.782L109.303 228.793C107.958 247.979 107.642 268.638 117.753 285.429C120.139 289.39 121.843 290.812 124.152 292.707C124.189 293.064 124.138 293.376 124.002 293.69L123.997 293.7L123.994 293.711C123.747 294.635 123.105 295.515 121.906 296.056L121.904 296.057C108.91 302.147 94.1122 302.451 80.8608 296.869C67.6121 291.288 58.0709 280.479 52.757 267.48L52.7567 267.48C47.9595 255.904 46.876 242.754 49.6611 230.569C49.6861 230.471 49.7112 230.384 49.7369 230.296L49.7371 230.295C49.7628 230.206 49.7893 230.115 49.8158 230.011C52.7579 218.429 55.7427 212.768 68.1157 190.657C75.7579 179.15 79.0112 172.468 83.7653 162.705C84.9351 160.303 86.1957 157.714 87.635 154.82C90.6676 148.724 91.8601 142.63 92.5737 136.46C92.8313 134.233 93.0263 132 93.2225 129.753C93.5705 125.768 93.9222 121.741 94.6331 117.635C95.3605 114.874 96.0169 112.305 96.6342 109.89C98.9145 100.968 100.661 94.1332 103.485 87.386C107.071 78.8185 112.395 70.3904 122.764 58.0278C133.128 47.8537 141.997 42.2782 149.755 38.9472C156.676 35.976 162.716 34.7884 168.162 33.7173C168.824 33.5873 169.476 33.4589 170.121 33.3293C170.122 33.3292 170.122 33.329 170.123 33.3289L170.125 33.3286L170.143 33.3255L170.214 33.3133L170.484 33.2671C170.717 33.2273 171.05 33.1705 171.451 33.1023C172.253 32.9658 173.327 32.7839 174.413 32.602C175.499 32.4201 176.598 32.2382 177.45 32.1018C177.877 32.0336 178.241 31.9769 178.511 31.9372C178.646 31.9174 178.757 31.9019 178.84 31.8915C178.927 31.8805 178.974 31.8763 178.988 31.8763H178.992C179.014 31.8763 179.033 31.8763 179.046 31.8759C179.053 31.8756 179.063 31.8752 179.074 31.8737C179.082 31.8726 179.109 31.8688 179.137 31.8517C179.158 31.8388 179.174 31.8223 179.186 31.8047C179.194 31.8008 179.206 31.7957 179.222 31.7893C179.28 31.7667 179.38 31.7343 179.55 31.6894C180.232 31.5097 181.975 31.1471 186.417 30.4201C199.694 29.658 211 30.4541 221.727 33.5085C232.457 36.5634 242.616 41.8795 253.594 50.1673C275.986 67.1281 282.186 91.67 284.718 117.617Z" fill="black" stroke="white" stroke-width="0.3"/>
<path d="M230.867 103.875C226.256 99.9091 222.43 95.2666 219.977 89.6569C219.781 89.27 218.604 89.0766 218.702 89.3668C221.154 95.0732 225.079 99.8124 229.788 103.875C230.082 104.068 231.357 104.261 230.867 103.875Z" fill="#FEFEFE"/>
<path d="M141.526 97.7C138.77 102.568 135.626 107.879 131.201 112.242C127.928 116.657 123.784 121.342 116.721 123.493C116.204 123.606 115.688 123.833 116.721 123.493C127.574 120.097 134.12 110.588 138.771 104.022C146.35 93.494 148.934 80.4756 166.333 74.8154C167.366 74.4758 165.127 74.3626 164.61 74.4758C150.485 79.0039 146.694 88.6437 141.526 97.7Z" fill="white"/>
<path d="M266.17 245.655C263.043 260.188 249.362 275.877 236.476 276.453C235.57 276.544 235.65 276.125 236.532 276.162C245.482 278.547 263.835 260.099 264.955 246.183C265.053 245.671 266.244 245.271 266.145 245.783L266.17 245.655Z" fill="#FEFEFE"/>
<path d="M240.373 197.108C239.932 221.083 225.805 250.105 208.883 254.942C207.706 255.362 207.706 254.674 208.883 254.464C221.345 255.515 240.958 220.702 238.898 198.314C238.898 197.473 240.373 196.478 240.373 197.319V197.108Z" fill="#FEFEFE"/>
<path d="M121.105 185.14C116.608 213.703 128.492 249.269 143.808 256.59C144.863 257.199 144.945 256.384 143.864 256.024C132.037 256.096 117.754 213.024 122.347 186.707C122.447 185.711 121.18 184.393 121.08 185.389L121.105 185.14Z" fill="#FEFEFE"/>
<path d="M210.852 83.2725C211.146 94.2984 220.564 107.646 231.846 109.87C232.631 110.064 232.729 109.483 231.944 109.387C221.349 107.259 212.421 93.8148 212.225 83.5626C212.225 83.1758 210.852 82.9823 210.852 83.3692V83.2725Z" fill="#FEFEFE"/>
<path d="M226.969 45.4616C226.683 45.3434 225.299 45.4348 225.961 45.7749C245.962 54.4336 262.706 68.3797 268.35 89.8449C268.419 90.2379 269.796 90.2429 269.629 89.8426C263.894 68.2737 246.962 54.2167 226.871 45.4543L226.969 45.4616Z" fill="white"/>
<path d="M67.4692 267.668C60.39 250.793 62.5873 228.347 76.9821 215.27C77.3127 214.985 76.0043 215.02 75.7441 215.187C61.2789 228.382 60.3654 250.7 67.4692 267.668C67.5431 267.948 67.6627 268.018 67.4692 267.668Z" fill="white"/>
<path d="M117.777 139.889C148.196 136.74 183.19 109.629 187.063 80.1372C187.439 78.0772 183.674 73.7096 183.565 75.7486C186.578 97.0072 146.863 137.606 117.777 139.889C116.708 139.973 116.975 139.952 118.044 139.868L117.777 139.889Z" fill="black"/>
<path d="M167 339C167 340.111 166.111 341 165 341C163.889 341 163 340.111 163 339C163 337.889 163.889 337 165 337C166.111 337 167 337.889 167 339Z" fill="#FEFEFE"/>
<path d="M190 290C190 291.111 189.111 292 188 292C186.889 292 186 291.111 186 290C186 288.889 186.889 288 188 288C189.111 288 190 288.889 190 290Z" fill="#FEFEFE"/>
<path d="M252 329C252 330.111 251.111 331 250 331C248.889 331 248 330.111 248 329C248 327.889 248.889 327 250 327C251.111 327 252 327.889 252 329Z" fill="#FEFEFE"/>
<path d="M211 326C211 327.111 210.111 328 209 328C207.889 328 207 327.111 207 326C207 324.889 207.889 324 209 324C210.111 324 211 324.889 211 326Z" fill="#FEFEFE"/>
<path d="M229 301C229 302.111 228.111 303 227 303C225.889 303 225 302.111 225 301C225 299.889 225.889 299 227 299C228.111 299 229 299.889 229 301Z" fill="#FEFEFE"/>
<path d="M175 316C175 317.111 174.111 318 173 318C171.889 318 171 317.111 171 316C171 314.889 171.889 314 173 314C174.111 314 175 314.889 175 316Z" fill="#FEFEFE"/>
<path d="M271 312C271 313.111 270.111 314 269 314C267.889 314 267 313.111 267 312C267 310.889 267.889 310 269 310C270.111 310 271 310.889 271 312Z" fill="#FEFEFE"/>
<path d="M159 291C159 292.111 158.111 293 157 293C155.889 293 155 292.111 155 291C155 289.889 155.889 289 157 289C158.111 289 159 289.889 159 291Z" fill="#FEFEFE"/>
<path d="M125 268C125 269.111 124.111 270 123 270C121.889 270 121 269.111 121 268C121 266.889 121.889 266 123 266C124.111 266 125 266.889 125 268Z" fill="#FEFEFE"/>
<path d="M107 322C107 323.111 106.111 324 105 324C103.889 324 103 323.111 103 322C103 320.889 103.889 320 105 320C106.111 320 107 320.889 107 322Z" fill="#FEFEFE"/>
<path d="M132 315C132 316.111 131.111 317 130 317C128.889 317 128 316.111 128 315C128 313.889 128.889 313 130 313C131.111 313 132 313.889 132 315Z" fill="#FEFEFE"/>
<path id="hair-right" d="M298.523 192.533C305.036 210.869 294.421 230.538 294.421 230.538C313.232 204.202 294.829 172.041 288.843 158.912C282.858 145.783 281.452 130.138 281.452 130.138L277.337 131.679C277.337 131.679 278.633 147.264 282.546 156.472C288.348 170.128 292.009 174.198 298.523 192.533Z" fill="black"/>
<path d="M55.1396 197.746C45.5847 215.246 51.4973 236.286 51.4973 236.286C32.6396 206.746 63.6238 180.775 74.084 169.982C84.5443 159.19 91.6397 145.746 91.6397 145.746L96.6397 148.246C96.6397 148.246 88.0221 157.687 81.6396 165.746C72.2789 177.565 64.6946 180.246 55.1396 197.746Z" fill="black"/>
</g>
<style>
    #smile {
        animation: smile 1.5s ease-in-out infinite alternate ;
    }
</style> 
</svg>

