<svg width="354" height="349" viewBox="0 0 354 349" fill="none" xmlns="http://www.w3.org/2000/svg">
<mask id="mask0" mask-type="alpha" maskUnits="userSpaceOnUse" x="0" y="0" width="354" height="349">
<path d="M214 0H140C62.6801 0 0 62.6801 0 140V209C0 286.32 62.6801 349 140 349H214C291.32 349 354 286.32 354 209V140C354 62.6801 291.32 0 214 0Z" fill="#C4C4C4"/>
</mask>
<g mask="url(#mask0)">
<path d="M94.2841 114.617V114.618C93.8198 119.263 93.9743 124.899 94.1684 130.554C94.182 130.953 94.1959 131.352 94.2098 131.751C94.3922 136.996 94.5732 142.196 94.2851 146.555C96.5208 185.406 90.8086 208.324 81.397 227.846C80.8868 229.318 80.3597 230.785 79.8331 232.25C77.9545 237.478 76.0807 242.693 74.9927 248.126C72.8256 259.759 74.4862 273.276 84.2994 281.114L84.2996 281.115C89.4136 285.212 95.7547 286.988 102.37 287.534C108.985 288.079 115.863 287.394 122.041 286.58L122.06 286.729L122.041 286.58C133.713 285.055 144.973 281.802 155.613 277.023L155.633 277.014L155.655 277.011C159.196 276.556 162.462 275.196 164.862 271.93H164.862C165.25 271.406 165.289 270.947 165.151 270.54L165.14 270.509L165.144 270.476C165.344 268.659 164.191 266.633 162.439 265.844L162.422 265.837L162.408 265.825C162.158 265.628 161.868 265.44 161.484 265.345C160.027 265.037 158.621 264.576 157.267 263.961H157.267L157.258 263.956C155.079 262.782 153.055 261.454 151.135 259.973C147.618 257.259 145.146 253.931 143.044 250.349C141.993 248.559 141.034 246.704 140.083 244.832C139.927 244.525 139.771 244.217 139.615 243.91C138.82 242.339 138.022 240.761 137.169 239.199L137.164 239.19L137.16 239.181C133.866 230.46 132.432 220.407 131.056 210.756C130.639 207.838 130.228 204.956 129.773 202.159H129.773C126.822 183.763 128.065 165.168 130.91 146.837L130.913 146.818L130.92 146.802C133.251 141.245 136.099 135.842 139.414 130.745L139.414 130.744C144.416 123.143 150.646 117.025 157.323 111.358C160.583 108.59 163.952 105.929 167.336 103.256L167.576 103.066C171.041 100.329 174.52 97.5754 177.917 94.6763L177.918 94.6755C181.428 91.7291 184.731 88.427 187.725 84.8203C191.716 80.0132 199.12 80.117 203.006 84.9748C204.039 86.2452 205.123 87.5158 206.207 88.7357L206.212 88.7412L206.217 88.7471C208.626 92.0621 210.763 95.6178 212.838 99.1813C213.232 99.8572 213.623 100.533 214.014 101.208C215.684 104.093 217.34 106.954 219.098 109.673L219.099 109.674C225.147 119.138 231.557 128.347 238.33 137.353V137.354C242.316 142.7 246.525 147.863 250.738 153.032C251.497 153.962 252.255 154.893 253.013 155.825L253.035 155.852L253.043 155.887C253.925 159.879 254.724 163.896 255.523 167.909C256.835 174.503 258.145 181.088 259.816 187.541C260.865 191.573 261.956 195.601 263.047 199.632C265.398 208.315 267.752 217.009 269.695 225.771L269.697 225.782L269.698 225.793C271.042 244.979 271.359 265.638 261.247 282.429C258.862 286.39 257.158 287.812 254.848 289.707C254.812 290.064 254.862 290.376 254.999 290.69L255.004 290.7L255.006 290.711C255.254 291.635 255.895 292.515 257.095 293.056L257.097 293.057C270.091 299.147 284.888 299.451 298.14 293.869C311.388 288.288 320.929 277.479 326.243 264.48C331.04 252.904 332.124 239.754 329.339 227.569C329.314 227.471 329.289 227.384 329.263 227.296V227.295C329.237 227.206 329.211 227.115 329.184 227.011C326.242 215.429 323.257 209.768 310.884 187.657C303.242 176.15 299.989 169.468 295.235 159.705C294.065 157.303 292.805 154.714 291.365 151.82C288.333 145.724 287.14 139.63 286.427 133.46C286.169 131.233 285.974 129 285.778 126.753C285.43 122.768 285.078 118.741 284.367 114.635C283.64 111.874 282.984 109.305 282.366 106.89C280.086 97.9679 278.339 91.1332 275.515 84.386C271.93 75.8185 266.606 67.3904 256.237 55.0278C245.873 44.8537 237.004 39.2782 229.246 35.9472C222.326 32.976 216.286 31.7883 210.839 30.7173C210.178 30.5872 209.525 30.4589 208.88 30.3293C208.88 30.3292 208.879 30.329 208.878 30.3289L208.876 30.3286L208.858 30.3255L208.787 30.3133L208.517 30.2671C208.284 30.2273 207.951 30.1705 207.55 30.1023C206.748 29.9658 205.675 29.7839 204.588 29.602C203.502 29.4201 202.403 29.2382 201.551 29.1018C201.125 29.0336 200.761 28.9769 200.49 28.9372C200.355 28.9174 200.244 28.9019 200.161 28.8915C200.074 28.8804 200.027 28.8763 200.013 28.8763H200.01C199.987 28.8763 199.969 28.8763 199.955 28.8759C199.949 28.8756 199.938 28.8752 199.928 28.8736C199.92 28.8726 199.893 28.8688 199.865 28.8517C199.843 28.8388 199.827 28.8223 199.816 28.8047C199.808 28.8008 199.796 28.7957 199.779 28.7893C199.722 28.7667 199.622 28.7343 199.451 28.6894C198.77 28.5097 197.027 28.1471 192.584 27.4201C179.308 26.658 168.002 27.4541 157.275 30.5085C146.545 33.5634 136.387 38.8795 125.409 47.1673C103.017 64.1281 96.817 88.67 94.2841 114.617Z" fill="black" stroke="white" stroke-width="0.3"/>
<path d="M148.135 100.874C152.746 96.9091 156.572 92.2666 159.025 86.6569C159.221 86.27 160.398 86.0766 160.3 86.3667C157.847 92.0731 153.923 96.8124 149.214 100.874C148.92 101.068 147.645 101.261 148.135 100.874Z" fill="#FEFEFE"/>
<path d="M237.475 94.7C240.231 99.5677 243.375 104.879 247.8 109.242C251.072 113.657 255.217 118.342 262.279 120.493C262.796 120.606 263.313 120.832 262.279 120.493C251.427 117.097 244.881 107.588 240.23 101.022C232.651 90.494 230.067 77.4756 212.668 71.8154C211.635 71.4758 213.874 71.3626 214.391 71.4758C228.516 76.0039 232.307 85.6437 237.475 94.7Z" fill="white"/>
<path d="M112.833 242.655C115.96 257.188 129.64 272.877 142.526 273.453C143.432 273.544 143.352 273.125 142.47 273.162C133.521 275.546 115.168 257.099 114.048 243.183C113.949 242.671 112.759 242.271 112.857 242.783L112.833 242.655Z" fill="#FEFEFE"/>
<path d="M138.629 194.108C139.071 218.083 153.197 247.105 170.119 251.942C171.296 252.362 171.296 251.674 170.119 251.464C157.657 252.515 138.044 217.702 140.104 195.314C140.104 194.473 138.629 193.478 138.629 194.319V194.108Z" fill="#FEFEFE"/>
<path d="M257.896 182.14C262.393 210.703 250.509 246.269 235.194 253.59C234.138 254.199 234.056 253.384 235.137 253.024C246.964 253.096 261.247 210.024 256.654 183.707C256.554 182.711 257.821 181.393 257.921 182.389L257.896 182.14Z" fill="#FEFEFE"/>
<path d="M168.15 80.2725C167.856 91.2984 158.438 104.646 147.156 106.87C146.371 107.064 146.273 106.483 147.058 106.387C157.653 104.259 166.581 90.8148 166.777 80.5626C166.777 80.1758 168.15 79.9823 168.15 80.3692V80.2725Z" fill="#FEFEFE"/>
<path d="M152.033 42.4616C152.319 42.3434 153.703 42.4348 153.041 42.7749C133.041 51.4336 116.297 65.3797 110.652 86.8449C110.584 87.2379 109.207 87.2429 109.373 86.8426C115.108 65.2737 132.04 51.2167 152.131 42.4543L152.033 42.4616Z" fill="white"/>
<path d="M311.531 264.668C318.61 247.793 316.413 225.347 302.018 212.27C301.688 211.985 302.996 212.02 303.256 212.187C317.721 225.382 318.635 247.7 311.531 264.668C311.337 265.018 311.457 264.948 311.531 264.668Z" fill="white"/>
<path d="M261.224 136.889C230.805 133.74 195.811 106.629 191.939 77.1372C191.562 75.0772 195.328 70.7096 195.437 72.7486C192.423 94.0072 232.138 134.606 261.224 136.889C262.293 136.973 262.026 136.952 260.957 136.868L261.224 136.889Z" fill="black"/>
<path d="M80.4803 189.533C73.9666 207.869 84.5822 227.538 84.5822 227.538C65.7707 201.202 84.1735 169.041 90.1594 155.912C96.1452 142.783 97.5504 127.138 97.5504 127.138L101.665 128.679C101.665 128.679 100.37 144.264 96.4572 153.472C90.6549 167.128 86.9942 171.197 80.4803 189.533Z" fill="black"/>
<path d="M323.861 194.746C333.415 212.246 327.503 233.286 327.503 233.286C346.36 203.746 315.377 177.775 304.916 166.982C294.456 156.19 287.361 142.746 287.361 142.746L282.361 145.246C282.361 145.246 290.978 154.687 297.361 162.746C306.722 174.565 314.306 177.246 323.861 194.746Z" fill="black"/>
</g>
</svg>
