<svg width="120" height="120" viewBox="0 0 120 120" fill="none" xmlns="http://www.w3.org/2000/svg">
<mask id="path-1-inside-1" fill="white">
<path d="M101.843 49.3326C101.371 43.9836 97.8135 38.6704 94.5097 34.5779C90.8428 30.0186 84.9977 27.2185 79.6244 25.1722C76.6837 24.0234 73.5251 22.5156 70.4028 21.9412C67.3532 21.3668 64.013 20.936 60.8908 21.0078C57.5507 21.0796 54.3558 22.0489 51.052 22.4797C48.5106 22.8028 46.3323 23.5926 44.3354 25.2081C39.4705 29.157 40.3418 35.8344 43.2463 40.7167C44.8437 43.3374 46.8768 45.0605 49.5271 46.5324C52.3953 48.112 55.7717 49.4403 59.0029 50.0506C58.9666 50.3019 58.9303 50.5532 58.894 50.8045C58.4583 54.6457 57.115 58.2716 56.28 62.041C55.4813 65.7387 54.6462 69.4004 53.666 73.0622C53.2303 74.7136 52.722 76.365 52.3227 78.0522C51.9959 79.5241 51.5966 81.2473 51.0157 82.7192C50.9431 82.6833 50.9067 82.6474 50.7978 82.6474C48.7647 82.6833 46.8405 82.5397 44.8074 82.791C42.7017 83.0423 40.6323 83.4013 38.5629 83.7603C34.4603 84.5142 30.2489 85.7348 26.4005 87.3143C23.3871 88.5708 20.8458 90.4376 19.4298 93.4173C18.0865 96.2533 17.7598 99.592 18.1591 102.679C18.5585 105.803 20.5916 108.782 23.0967 110.685C25.7833 112.731 29.1597 113.342 32.4998 113.485C36.675 113.701 40.6323 112.48 44.4807 111.008C48.5106 109.464 52.7946 108.495 56.8972 107.203C59.2207 106.485 61.5806 105.767 63.9404 105.156C66.3366 104.546 69.0232 103.72 71.492 103.756C74.3601 103.828 76.9015 107.562 76.2117 110.254C75.9213 111.439 75.1952 112.336 74.1423 112.947C72.6175 113.808 70.2213 113.054 69.6041 111.367C69.7856 111.152 69.6041 110.721 69.241 110.793C69.2047 110.793 69.1321 110.829 69.0958 110.829C68.9143 110.864 68.8054 111.08 68.8417 111.259C69.4226 113.808 72.6901 114.706 74.7958 113.413C77.1194 111.977 77.7002 109.105 76.4659 106.772C75.885 105.695 75.0499 104.259 73.9245 103.613C72.4722 102.751 70.6933 103.002 69.1321 103.29C64.5939 104.044 60.1647 105.408 55.7717 106.808C51.4513 108.172 47.0947 109.393 42.8106 110.864C40.7775 111.547 38.5992 112.265 36.4934 112.624C33.9884 113.054 31.1202 112.767 28.6514 112.265C24.3311 111.367 20.6642 108.351 19.2846 104.151C17.9776 100.202 18.8489 94.6737 21.5356 91.4787C24.7668 87.6015 30.5756 86.5245 35.2591 85.2681C37.6552 84.6219 40.124 84.1911 42.5565 83.7962C44.1176 83.5449 45.715 83.3295 47.2762 83.2218C48.4743 83.15 49.6361 83.3295 50.8341 83.3295C50.5074 85.6629 49.5997 88.2118 48.9099 90.4735C48.1112 93.1301 47.2399 95.7507 46.5138 98.4432C46.2959 99.2689 43.7546 107.992 45.6424 107.777C46.5864 107.669 47.3488 104.762 47.6029 104.151C48.5106 101.997 49.0189 99.6997 49.636 97.438C50.943 92.8429 52.5405 88.3195 53.7386 83.6885C53.7749 83.5808 53.7386 83.509 53.7023 83.4372C53.7023 83.3654 53.7386 83.3295 53.7386 83.2577C53.8838 83.3295 54.0653 83.2577 54.1742 83.15C56.8245 83.4372 59.6564 83.1141 62.343 83.1141C65.5379 83.15 68.6239 82.6833 71.7824 82.3961C74.7958 82.1448 77.7002 82.9705 80.7499 82.6474C83.5091 82.3602 86.6677 81.6781 88.9187 80.0626C93.3116 76.9034 97.0874 71.8775 99.1931 66.9952C101.662 61.5743 102.352 55.2919 101.843 49.3326ZM52.9762 83.6526C52.9762 83.7244 52.9762 83.7962 53.0125 83.868C52.0685 87.422 51.0157 91.012 49.8539 94.5301C49.2004 96.5405 48.6558 98.6227 48.0749 100.669C47.5303 102.608 46.659 104.367 45.9329 106.233C45.2794 107.813 45.7151 105.623 45.8603 105.156C46.1144 104.151 46.2596 103.11 46.4775 102.069C46.9131 99.7356 47.5303 97.438 48.2201 95.1763C48.9099 93.0583 49.5997 90.9043 50.1806 88.7503C50.6163 87.0271 51.3061 85.2322 51.5602 83.4731C52.4679 81.4268 52.7946 79.1292 53.4118 77.0112C54.2832 74.211 55.0456 71.3031 55.7354 68.4312C56.4252 65.5233 56.8609 62.5795 57.6596 59.7076C58.4946 56.7997 59.257 53.8918 59.6201 50.8763C59.8742 48.7941 60.4551 45.4195 62.2341 43.9477C63.2143 43.1579 64.4487 43.0861 64.5213 44.522C64.5576 45.0246 64.485 45.4913 64.4487 45.9939C64.2672 47.6094 63.9767 49.2608 63.5048 50.8404C63.4685 50.984 63.3959 51.1635 63.3596 51.3071C63.2143 51.1994 63.0691 51.0917 62.9239 51.0199C63.3595 49.9429 63.7589 48.83 64.0494 47.7171C64.3035 46.7837 64.122 44.3066 62.6334 45.1323C61.1449 45.9221 60.9271 48.83 60.4551 50.1583C60.0557 51.3789 58.6398 54.2149 60.3462 55.0406C60.4551 55.1124 60.564 55.0765 60.6729 55.0406C60.7819 55.1124 60.9271 55.1124 61.036 55.0406C61.7984 54.5739 62.0525 52.9943 62.3793 52.2404C62.4519 52.061 62.5608 51.8456 62.6334 51.6302C62.7787 51.7379 62.9602 51.8456 63.1054 51.9892C62.343 54.2508 61.2901 56.4048 60.4914 58.6306C59.5838 61.1794 58.9666 63.9437 58.2768 66.5644C57.4781 69.6517 56.8246 72.5596 55.5902 75.5393C54.5373 78.1599 53.5571 80.8524 52.9762 83.6526ZM61.036 54.3226C60.8908 54.179 60.7456 54.2149 60.6003 54.2867C59.9105 53.6764 60.6366 51.8097 60.9997 50.8045C61.036 50.8045 61.036 50.8404 61.0723 50.8404C61.399 50.9481 61.6895 51.0558 61.9799 51.1994C61.8347 51.5943 61.6895 52.0251 61.508 52.4199C61.3627 52.8507 60.6729 53.9636 61.036 54.3226ZM61.2901 50.1583C61.6169 49.1172 61.7258 48.0043 62.1978 46.9991C62.3067 46.7837 62.7424 45.7426 62.9602 45.7426C63.3232 45.7426 63.2869 47.6094 63.2143 47.9684C63.1054 48.3633 62.8876 48.7223 62.7787 49.0813C62.5971 49.548 62.4519 50.0506 62.2704 50.5173C61.9436 50.3737 61.6169 50.266 61.2901 50.1583ZM101.081 56.3689C100.754 59.1332 100.428 61.8615 99.4836 64.5181C97.6683 69.8312 94.3282 74.0315 90.3709 77.9445C87.7932 80.4934 84.3805 81.6063 80.7862 82.0012C77.9544 82.2884 75.2315 81.4268 72.4359 81.6781C69.4226 81.9294 66.3729 82.4679 63.3596 82.4679C61.7984 82.4679 60.2736 82.432 58.7124 82.432C57.1513 82.432 55.5175 82.6474 53.9927 82.432C54.5736 80.1344 55.4086 77.9086 56.3163 75.7188C57.5144 72.8109 58.3131 69.9748 59.0029 66.9234C59.6927 63.8001 60.5277 60.5691 61.7258 57.5895C62.4156 55.9022 63.1054 54.179 63.6863 52.4199C65.4653 54.2149 66.5181 56.9792 67.9341 58.8819C69.5315 61.0358 71.9277 62.2564 74.5053 62.8308C79.4429 63.9437 85.2881 63.118 87.3575 57.9485C88.9913 53.82 88.3015 46.7119 83.3639 45.0964C81.1856 44.3784 78.7894 44.5579 77.5187 46.6042C76.2843 48.5787 76.3932 50.3737 77.9544 52.061C78.2448 52.3481 78.7531 51.9533 78.5353 51.6302L78.4627 51.5225C78.4264 51.4866 78.39 51.4507 78.39 51.4507C76.2117 48.9377 78.2448 45.2759 81.6212 45.4913C84.8524 45.7067 86.2684 47.9684 86.9945 50.8045C88.2652 55.7586 86.4862 61.2871 80.8951 62.4C76.4295 63.2616 70.9111 61.9333 68.2971 58.0921C66.9538 56.1535 65.8283 53.4969 64.013 51.7379C64.3398 50.625 64.6666 49.5121 64.8481 48.3992C65.1022 46.9632 66.1551 43.6964 64.6666 42.5476C63.2869 41.4706 61.9436 43.2656 61.2175 44.2348C60.1284 45.7067 59.5475 47.5735 59.1844 49.4044C56.6793 48.9018 54.029 47.9325 51.7055 46.8555C49.0189 45.6349 46.659 44.1272 44.88 41.7937C41.5399 37.4139 39.7973 30.2699 44.4444 26.1415C46.8405 24.0234 49.4908 23.4849 52.6131 23.09C55.5539 22.731 58.2768 21.8335 61.2901 21.7976C64.1583 21.7617 67.4258 22.1925 70.2576 22.6951C72.9805 23.1977 75.7034 24.4901 78.2811 25.4594C83.4002 27.3621 88.7008 29.7673 92.6581 33.5727C94.6186 35.4754 96.1072 37.9524 97.5594 40.25C99.0116 42.5476 100.391 44.9887 100.936 47.6453C101.444 50.4814 101.408 53.5328 101.081 56.3689Z"/>
<path d="M52.9762 83.6526C52.9762 83.7244 52.9762 83.7962 53.0125 83.868C52.0685 87.422 51.0157 91.012 49.8539 94.5301C49.2004 96.5405 48.6558 98.6227 48.0749 100.669C47.5303 102.608 46.659 104.367 45.9329 106.233C45.2794 107.813 45.7151 105.623 45.8603 105.156C46.1144 104.151 46.2596 103.11 46.4775 102.069C46.9131 99.7356 47.5303 97.438 48.2201 95.1763C48.9099 93.0583 49.5997 90.9043 50.1806 88.7503C50.6163 87.0271 51.3061 85.2322 51.5602 83.4731C52.4679 81.4268 52.7946 79.1292 53.4118 77.0112C54.2832 74.211 55.0456 71.3031 55.7354 68.4312C56.4252 65.5233 56.8609 62.5795 57.6596 59.7076C58.4946 56.7997 59.257 53.8918 59.6201 50.8763C59.8742 48.7941 60.4551 45.4195 62.2341 43.9477C63.2143 43.1579 64.4487 43.0861 64.5213 44.522C64.5576 45.0246 64.485 45.4913 64.4487 45.9939C64.2672 47.6094 63.9767 49.2608 63.5048 50.8404C63.4685 50.984 63.3959 51.1635 63.3596 51.3071C63.2143 51.1994 63.0691 51.0917 62.9239 51.0199C63.3595 49.9429 63.7589 48.83 64.0494 47.7171C64.3035 46.7837 64.122 44.3066 62.6334 45.1323C61.1449 45.9221 60.9271 48.83 60.4551 50.1583C60.0557 51.3789 58.6398 54.2149 60.3462 55.0406C60.4551 55.1124 60.564 55.0765 60.6729 55.0406C60.7819 55.1124 60.9271 55.1124 61.036 55.0406C61.7984 54.5739 62.0525 52.9943 62.3793 52.2404C62.4519 52.061 62.5608 51.8456 62.6334 51.6302C62.7787 51.7379 62.9602 51.8456 63.1054 51.9892C62.343 54.2508 61.2901 56.4048 60.4914 58.6306C59.5838 61.1794 58.9666 63.9437 58.2768 66.5644C57.4781 69.6517 56.8246 72.5596 55.5902 75.5393C54.5373 78.1599 53.5571 80.8524 52.9762 83.6526Z"/>
</mask>
<path d="M101.843 49.3326C101.371 43.9836 97.8135 38.6704 94.5097 34.5779C90.8428 30.0186 84.9977 27.2185 79.6244 25.1722C76.6837 24.0234 73.5251 22.5156 70.4028 21.9412C67.3532 21.3668 64.013 20.936 60.8908 21.0078C57.5507 21.0796 54.3558 22.0489 51.052 22.4797C48.5106 22.8028 46.3323 23.5926 44.3354 25.2081C39.4705 29.157 40.3418 35.8344 43.2463 40.7167C44.8437 43.3374 46.8768 45.0605 49.5271 46.5324C52.3953 48.112 55.7717 49.4403 59.0029 50.0506C58.9666 50.3019 58.9303 50.5532 58.894 50.8045C58.4583 54.6457 57.115 58.2716 56.28 62.041C55.4813 65.7387 54.6462 69.4004 53.666 73.0622C53.2303 74.7136 52.722 76.365 52.3227 78.0522C51.9959 79.5241 51.5966 81.2473 51.0157 82.7192C50.9431 82.6833 50.9067 82.6474 50.7978 82.6474C48.7647 82.6833 46.8405 82.5397 44.8074 82.791C42.7017 83.0423 40.6323 83.4013 38.5629 83.7603C34.4603 84.5142 30.2489 85.7348 26.4005 87.3143C23.3871 88.5708 20.8458 90.4376 19.4298 93.4173C18.0865 96.2533 17.7598 99.592 18.1591 102.679C18.5585 105.803 20.5916 108.782 23.0967 110.685C25.7833 112.731 29.1597 113.342 32.4998 113.485C36.675 113.701 40.6323 112.48 44.4807 111.008C48.5106 109.464 52.7946 108.495 56.8972 107.203C59.2207 106.485 61.5806 105.767 63.9404 105.156C66.3366 104.546 69.0232 103.72 71.492 103.756C74.3601 103.828 76.9015 107.562 76.2117 110.254C75.9213 111.439 75.1952 112.336 74.1423 112.947C72.6175 113.808 70.2213 113.054 69.6041 111.367C69.7856 111.152 69.6041 110.721 69.241 110.793C69.2047 110.793 69.1321 110.829 69.0958 110.829C68.9143 110.864 68.8054 111.08 68.8417 111.259C69.4226 113.808 72.6901 114.706 74.7958 113.413C77.1194 111.977 77.7002 109.105 76.4659 106.772C75.885 105.695 75.0499 104.259 73.9245 103.613C72.4722 102.751 70.6933 103.002 69.1321 103.29C64.5939 104.044 60.1647 105.408 55.7717 106.808C51.4513 108.172 47.0947 109.393 42.8106 110.864C40.7775 111.547 38.5992 112.265 36.4934 112.624C33.9884 113.054 31.1202 112.767 28.6514 112.265C24.3311 111.367 20.6642 108.351 19.2846 104.151C17.9776 100.202 18.8489 94.6737 21.5356 91.4787C24.7668 87.6015 30.5756 86.5245 35.2591 85.2681C37.6552 84.6219 40.124 84.1911 42.5565 83.7962C44.1176 83.5449 45.715 83.3295 47.2762 83.2218C48.4743 83.15 49.6361 83.3295 50.8341 83.3295C50.5074 85.6629 49.5997 88.2118 48.9099 90.4735C48.1112 93.1301 47.2399 95.7507 46.5138 98.4432C46.2959 99.2689 43.7546 107.992 45.6424 107.777C46.5864 107.669 47.3488 104.762 47.6029 104.151C48.5106 101.997 49.0189 99.6997 49.636 97.438C50.943 92.8429 52.5405 88.3195 53.7386 83.6885C53.7749 83.5808 53.7386 83.509 53.7023 83.4372C53.7023 83.3654 53.7386 83.3295 53.7386 83.2577C53.8838 83.3295 54.0653 83.2577 54.1742 83.15C56.8245 83.4372 59.6564 83.1141 62.343 83.1141C65.5379 83.15 68.6239 82.6833 71.7824 82.3961C74.7958 82.1448 77.7002 82.9705 80.7499 82.6474C83.5091 82.3602 86.6677 81.6781 88.9187 80.0626C93.3116 76.9034 97.0874 71.8775 99.1931 66.9952C101.662 61.5743 102.352 55.2919 101.843 49.3326ZM52.9762 83.6526C52.9762 83.7244 52.9762 83.7962 53.0125 83.868C52.0685 87.422 51.0157 91.012 49.8539 94.5301C49.2004 96.5405 48.6558 98.6227 48.0749 100.669C47.5303 102.608 46.659 104.367 45.9329 106.233C45.2794 107.813 45.7151 105.623 45.8603 105.156C46.1144 104.151 46.2596 103.11 46.4775 102.069C46.9131 99.7356 47.5303 97.438 48.2201 95.1763C48.9099 93.0583 49.5997 90.9043 50.1806 88.7503C50.6163 87.0271 51.3061 85.2322 51.5602 83.4731C52.4679 81.4268 52.7946 79.1292 53.4118 77.0112C54.2832 74.211 55.0456 71.3031 55.7354 68.4312C56.4252 65.5233 56.8609 62.5795 57.6596 59.7076C58.4946 56.7997 59.257 53.8918 59.6201 50.8763C59.8742 48.7941 60.4551 45.4195 62.2341 43.9477C63.2143 43.1579 64.4487 43.0861 64.5213 44.522C64.5576 45.0246 64.485 45.4913 64.4487 45.9939C64.2672 47.6094 63.9767 49.2608 63.5048 50.8404C63.4685 50.984 63.3959 51.1635 63.3596 51.3071C63.2143 51.1994 63.0691 51.0917 62.9239 51.0199C63.3595 49.9429 63.7589 48.83 64.0494 47.7171C64.3035 46.7837 64.122 44.3066 62.6334 45.1323C61.1449 45.9221 60.9271 48.83 60.4551 50.1583C60.0557 51.3789 58.6398 54.2149 60.3462 55.0406C60.4551 55.1124 60.564 55.0765 60.6729 55.0406C60.7819 55.1124 60.9271 55.1124 61.036 55.0406C61.7984 54.5739 62.0525 52.9943 62.3793 52.2404C62.4519 52.061 62.5608 51.8456 62.6334 51.6302C62.7787 51.7379 62.9602 51.8456 63.1054 51.9892C62.343 54.2508 61.2901 56.4048 60.4914 58.6306C59.5838 61.1794 58.9666 63.9437 58.2768 66.5644C57.4781 69.6517 56.8246 72.5596 55.5902 75.5393C54.5373 78.1599 53.5571 80.8524 52.9762 83.6526ZM61.036 54.3226C60.8908 54.179 60.7456 54.2149 60.6003 54.2867C59.9105 53.6764 60.6366 51.8097 60.9997 50.8045C61.036 50.8045 61.036 50.8404 61.0723 50.8404C61.399 50.9481 61.6895 51.0558 61.9799 51.1994C61.8347 51.5943 61.6895 52.0251 61.508 52.4199C61.3627 52.8507 60.6729 53.9636 61.036 54.3226ZM61.2901 50.1583C61.6169 49.1172 61.7258 48.0043 62.1978 46.9991C62.3067 46.7837 62.7424 45.7426 62.9602 45.7426C63.3232 45.7426 63.2869 47.6094 63.2143 47.9684C63.1054 48.3633 62.8876 48.7223 62.7787 49.0813C62.5971 49.548 62.4519 50.0506 62.2704 50.5173C61.9436 50.3737 61.6169 50.266 61.2901 50.1583ZM101.081 56.3689C100.754 59.1332 100.428 61.8615 99.4836 64.5181C97.6683 69.8312 94.3282 74.0315 90.3709 77.9445C87.7932 80.4934 84.3805 81.6063 80.7862 82.0012C77.9544 82.2884 75.2315 81.4268 72.4359 81.6781C69.4226 81.9294 66.3729 82.4679 63.3596 82.4679C61.7984 82.4679 60.2736 82.432 58.7124 82.432C57.1513 82.432 55.5175 82.6474 53.9927 82.432C54.5736 80.1344 55.4086 77.9086 56.3163 75.7188C57.5144 72.8109 58.3131 69.9748 59.0029 66.9234C59.6927 63.8001 60.5277 60.5691 61.7258 57.5895C62.4156 55.9022 63.1054 54.179 63.6863 52.4199C65.4653 54.2149 66.5181 56.9792 67.9341 58.8819C69.5315 61.0358 71.9277 62.2564 74.5053 62.8308C79.4429 63.9437 85.2881 63.118 87.3575 57.9485C88.9913 53.82 88.3015 46.7119 83.3639 45.0964C81.1856 44.3784 78.7894 44.5579 77.5187 46.6042C76.2843 48.5787 76.3932 50.3737 77.9544 52.061C78.2448 52.3481 78.7531 51.9533 78.5353 51.6302L78.4627 51.5225C78.4264 51.4866 78.39 51.4507 78.39 51.4507C76.2117 48.9377 78.2448 45.2759 81.6212 45.4913C84.8524 45.7067 86.2684 47.9684 86.9945 50.8045C88.2652 55.7586 86.4862 61.2871 80.8951 62.4C76.4295 63.2616 70.9111 61.9333 68.2971 58.0921C66.9538 56.1535 65.8283 53.4969 64.013 51.7379C64.3398 50.625 64.6666 49.5121 64.8481 48.3992C65.1022 46.9632 66.1551 43.6964 64.6666 42.5476C63.2869 41.4706 61.9436 43.2656 61.2175 44.2348C60.1284 45.7067 59.5475 47.5735 59.1844 49.4044C56.6793 48.9018 54.029 47.9325 51.7055 46.8555C49.0189 45.6349 46.659 44.1272 44.88 41.7937C41.5399 37.4139 39.7973 30.2699 44.4444 26.1415C46.8405 24.0234 49.4908 23.4849 52.6131 23.09C55.5539 22.731 58.2768 21.8335 61.2901 21.7976C64.1583 21.7617 67.4258 22.1925 70.2576 22.6951C72.9805 23.1977 75.7034 24.4901 78.2811 25.4594C83.4002 27.3621 88.7008 29.7673 92.6581 33.5727C94.6186 35.4754 96.1072 37.9524 97.5594 40.25C99.0116 42.5476 100.391 44.9887 100.936 47.6453C101.444 50.4814 101.408 53.5328 101.081 56.3689Z" stroke="black" stroke-width="6" mask="url(#path-1-inside-1)"/>
<path d="M52.9762 83.6526C52.9762 83.7244 52.9762 83.7962 53.0125 83.868C52.0685 87.422 51.0157 91.012 49.8539 94.5301C49.2004 96.5405 48.6558 98.6227 48.0749 100.669C47.5303 102.608 46.659 104.367 45.9329 106.233C45.2794 107.813 45.7151 105.623 45.8603 105.156C46.1144 104.151 46.2596 103.11 46.4775 102.069C46.9131 99.7356 47.5303 97.438 48.2201 95.1763C48.9099 93.0583 49.5997 90.9043 50.1806 88.7503C50.6163 87.0271 51.3061 85.2322 51.5602 83.4731C52.4679 81.4268 52.7946 79.1292 53.4118 77.0112C54.2832 74.211 55.0456 71.3031 55.7354 68.4312C56.4252 65.5233 56.8609 62.5795 57.6596 59.7076C58.4946 56.7997 59.257 53.8918 59.6201 50.8763C59.8742 48.7941 60.4551 45.4195 62.2341 43.9477C63.2143 43.1579 64.4487 43.0861 64.5213 44.522C64.5576 45.0246 64.485 45.4913 64.4487 45.9939C64.2672 47.6094 63.9767 49.2608 63.5048 50.8404C63.4685 50.984 63.3959 51.1635 63.3596 51.3071C63.2143 51.1994 63.0691 51.0917 62.9239 51.0199C63.3595 49.9429 63.7589 48.83 64.0494 47.7171C64.3035 46.7837 64.122 44.3066 62.6334 45.1323C61.1449 45.9221 60.9271 48.83 60.4551 50.1583C60.0557 51.3789 58.6398 54.2149 60.3462 55.0406C60.4551 55.1124 60.564 55.0765 60.6729 55.0406C60.7819 55.1124 60.9271 55.1124 61.036 55.0406C61.7984 54.5739 62.0525 52.9943 62.3793 52.2404C62.4519 52.061 62.5608 51.8456 62.6334 51.6302C62.7787 51.7379 62.9602 51.8456 63.1054 51.9892C62.343 54.2508 61.2901 56.4048 60.4914 58.6306C59.5838 61.1794 58.9666 63.9437 58.2768 66.5644C57.4781 69.6517 56.8246 72.5596 55.5902 75.5393C54.5373 78.1599 53.5571 80.8524 52.9762 83.6526Z" stroke="black" stroke-width="6" mask="url(#path-1-inside-1)"/>
</svg>
