<svg width="120" height="120" viewBox="0 0 120 120" fill="none" xmlns="http://www.w3.org/2000/svg">
<path d="M58.0381 111.341C58.0327 111.13 58.0431 111.022 58.0014 110.922C57.9598 110.823 57.8882 110.701 57.8323 110.683C57.7504 110.669 57.6023 110.744 57.5621 110.83C57.4232 111.142 57.3423 111.808 57.2593 112.139C57.2308 112.302 57.3141 112.502 57.5 112.5C57.6339 112.506 57.8261 112.371 57.8885 112.256C57.9949 112.081 58.0056 111.478 58.0381 111.341ZM54.0702 109.184C53.9662 109.2 53.8323 109.194 53.7622 109.257C53.3997 109.498 53.2687 109.862 53.1116 110.23C52.878 110.796 52.8926 111.244 53.1863 111.252C53.5879 111.271 53.7827 110.977 53.9775 110.682C54.2385 110.298 54.4137 109.875 54.2873 109.39C54.2717 109.286 54.156 109.224 54.0922 109.155L54.0702 109.184ZM50.0254 106.695C49.9734 106.703 49.9136 106.659 49.8655 106.693C49.2172 106.976 48.7561 107.443 48.5979 108.156C48.5655 108.294 48.6709 108.463 48.7724 108.607C48.8101 108.681 48.9999 108.705 49.0739 108.667C49.7326 108.276 50.2158 107.779 50.2244 106.957C50.2127 106.879 50.093 106.791 50.0293 106.721L50.0254 106.695ZM62.8356 112.126C62.8535 111.541 62.8129 111.096 62.5904 110.68C62.4434 110.41 62.2964 110.141 61.9806 110.162C61.5608 110.199 61.4817 110.556 61.4247 110.882C61.3328 111.506 61.3748 112.135 61.6727 112.7C61.786 112.921 61.9394 113.057 62.2032 113.043C62.4411 113.034 62.6294 112.873 62.7021 112.65C62.7786 112.453 62.8214 112.208 62.8356 112.126ZM52.1742 105.258C52.2407 105.698 52.3749 106.234 52.9314 106.574C53.3422 106.83 53.6801 106.779 53.9671 106.391C54.3788 105.772 54.6188 105.074 54.8328 104.379C54.956 103.963 54.7609 103.727 54.3152 103.768C53.6056 103.822 53.0053 104.072 52.4701 104.577C52.3078 104.734 52.1454 104.891 52.1781 105.283L52.1742 105.258ZM58.3556 107.636C58.3701 108.084 58.5456 108.19 58.7055 108.193C59.6868 108.177 60.7513 108.36 61.593 107.597C61.534 106.679 60.7903 106.155 60.2908 105.489C60.257 105.441 60.2011 105.423 60.1673 105.375C59.8942 105.151 59.4744 105.188 59.3135 105.53C58.9695 106.245 58.6814 106.977 58.3933 107.71C58.3751 107.766 58.383 107.817 58.3816 107.632L58.3556 107.636ZM57.1927 103.81C56.4973 103.783 56.179 103.963 56.0038 104.387C55.756 105.034 55.4782 105.659 55.2823 106.298C55.0099 107.135 55.0893 107.308 55.8758 107.587C56.0434 107.641 56.2111 107.695 56.3528 107.753C56.7441 107.879 57.0443 107.755 57.2312 107.408C57.5934 106.638 57.9555 105.868 58.2878 105.076C58.5758 104.343 58.3612 103.978 57.6502 103.847C57.4305 103.801 57.1927 103.81 57.2187 103.806L57.1927 103.81ZM89.2189 26.8668C89.9662 26.8864 90.512 26.804 91.0642 26.588C91.9946 26.2355 92.2022 25.6741 91.6312 24.8859C90.8572 23.8104 89.8365 23.0371 88.5249 22.6258C87.2432 22.2365 86.1751 22.5569 85.4739 23.7228C85.1948 24.1624 85.2093 24.6107 85.5319 24.986C86.5554 26.1298 87.7399 26.9313 89.2149 26.8409L89.2189 26.8668ZM69.4886 92.4657C68.9012 92.4485 68.4191 92.6008 67.9526 92.8568C66.7755 93.5116 65.7896 94.3761 65.0208 95.4462C63.4651 97.6422 62.1967 99.9803 60.9921 102.388C60.5235 103.334 60.6174 103.955 61.2806 104.65C61.4718 104.86 61.6409 105.099 61.8321 105.309C62.1806 105.68 62.5445 105.625 62.7639 105.141C63.3012 103.947 63.7827 102.735 64.3759 101.559C65.3392 99.6645 66.6613 98.0338 67.9755 96.3512C68.756 95.3588 69.4767 94.3225 70.2013 93.312C70.4663 92.954 70.3374 92.629 69.95 92.5285C69.7863 92.5003 69.6225 92.472 69.5107 92.4359L69.4886 92.4657ZM58.9421 110.462C58.9307 110.915 58.9855 111.277 58.9285 111.604C58.786 112.42 58.4121 113.113 57.6235 113.523C57.057 113.821 56.4642 113.593 56.2143 112.994C56.0399 112.544 55.9993 112.099 56.1446 111.653C56.3301 111.122 56.5157 110.59 56.7272 110.055C56.9167 109.549 56.8113 109.38 56.2523 109.199C56.1964 109.181 56.1405 109.163 56.0846 109.145C55.5296 108.99 55.3815 109.066 55.1959 109.597C55.0104 110.129 54.9107 110.7 54.6692 111.214C54.2487 112.125 53.4458 112.618 52.6646 112.55C52.1512 112.495 51.8105 112.176 51.7881 111.676C51.7266 110.916 51.8847 110.204 52.2885 109.533C52.5015 109.183 52.7482 108.881 52.9352 108.534C52.9975 108.419 52.9622 108.186 52.8907 108.064C52.5941 107.685 52.195 107.507 51.7699 107.333C51.6022 107.278 51.3904 107.284 51.3099 107.455C50.9816 108.273 49.9384 108.934 50.6123 110.051C50.7593 110.321 50.5606 110.589 50.4698 110.868C50.3024 111.344 50.1389 111.845 49.9456 112.325C49.7159 112.916 49.8501 113.452 50.3143 113.886C50.5614 114.113 50.8124 114.367 51.1036 114.535C52.9823 115.709 55.1595 116.042 57.2782 116.517C57.39 116.553 57.5161 116.508 57.6239 116.518C58.2296 116.479 58.722 116.219 59.0076 115.646C59.3957 114.872 59.7878 114.124 60.1759 113.35C60.2966 113.093 60.3835 112.788 60.3704 112.525C60.2672 111.667 60.2199 110.826 60.4364 109.972C60.4909 109.804 60.3596 109.639 60.1919 109.584C59.5692 109.334 59.0066 109.658 58.9927 110.269C58.9823 110.377 59.0019 110.506 59.0019 110.506L58.9421 110.462ZM57.288 91.4207C57.2147 90.5838 57.1062 89.5137 56.9977 88.4437C56.9649 88.0511 56.8282 87.6743 56.5915 87.3391C56.0504 86.5729 55.1197 86.3955 54.3506 86.9357C53.918 87.2395 53.6089 87.6572 53.4156 88.1369C53.1496 88.8396 53.0473 89.5705 53.1349 90.3258C53.2199 91.2404 53.301 92.1291 53.334 93.0516C53.4499 95.578 53.0524 98.0495 52.6808 100.517C52.3015 102.933 51.9415 103.014 54.6094 102.372C55.2773 102.218 55.576 101.908 55.7199 101.277C56.2994 98.7779 56.7411 96.2467 57.1009 93.7014C57.1849 93.0263 57.2131 92.333 57.2841 91.3948L57.288 91.4207ZM56.7129 101.339C56.6666 102.088 56.8357 102.327 57.3907 102.482C57.834 102.6 58.2954 102.663 58.7348 102.756C59.0363 102.816 59.3183 102.747 59.4949 102.508C59.7118 102.184 59.9247 101.834 60.1117 101.488C61.2255 99.3586 62.4291 97.2953 63.6625 95.254C64.4922 93.8831 64.9189 92.3082 65.2416 90.749C65.3997 90.0361 65.0419 89.4277 64.3256 89.0854C63.8667 88.8633 63.3675 88.7267 62.8865 88.5344C62.4095 88.368 61.9676 88.4347 61.5831 88.7048C59.8227 89.8983 58.5669 91.4395 58.2042 93.6142C57.8352 95.9224 57.5221 98.2487 56.8515 100.496C56.7425 100.831 56.7115 101.154 56.6908 101.369L56.7129 101.339ZM84.8064 22.4722C85.7753 21.3188 87.3077 21.4318 88.6995 21.142C89.1114 21.0532 89.5248 21.1498 89.8277 21.3955C91.1788 22.5958 92.704 23.7168 93.1015 25.6442C93.2097 26.1844 93.4867 26.434 93.9638 26.6004C94.4968 26.7849 95.0337 26.9953 95.5887 27.1499C97.146 27.6036 98.5423 28.3996 99.8283 29.3447C101.024 30.224 102.243 31.0734 103.461 31.9228C103.67 32.0766 103.929 32.382 104.184 32.1316C104.416 31.9109 104.261 31.5898 104.166 31.3127C104.064 30.9838 103.909 30.6627 103.732 30.3714C102.342 28.0374 100.554 26.0552 98.4372 24.3611C97.2293 23.4041 95.9512 22.5107 94.7873 21.4941C93.7172 20.5693 92.5081 19.957 91.1926 19.5198C88.0285 18.4609 84.8036 17.7027 81.4789 17.5161C80.1662 17.4494 78.8432 17.4903 77.5422 17.5014C77.3823 17.499 77.1744 17.5305 77.2136 17.7895C77.2253 17.8673 77.3488 17.9811 77.4307 17.9952C79.8667 18.6341 81.9249 19.9396 83.7298 21.6809C84.0107 21.9564 84.2475 22.2916 84.8025 22.4463L84.8064 22.4722ZM94.9661 72.8227C96.0278 72.6358 96.5459 71.842 97.1993 71.2398C99.4582 69.1231 101.474 66.8046 103.093 64.1485C104.686 61.4964 106.052 58.7461 107.384 55.948C108.251 54.121 108.481 52.1253 108.659 50.1374C108.715 49.6255 108.614 49.1372 108.51 48.623C108.273 47.2279 108.083 45.799 107.924 44.3921C107.695 42.1743 107.626 39.9587 106.774 37.8351C106.387 36.86 105.834 36.0161 105.159 35.2436C103.397 33.2574 101.3 31.6929 99.1802 30.1581C97.4158 28.8613 95.3711 28.3487 93.3627 27.7247C93.2249 27.6925 93.0209 27.7498 92.8988 27.8213C92.6844 27.9862 92.7496 28.2413 92.8589 28.4368C93.2935 29.3781 93.8503 30.248 94.5954 30.9569C95.5278 31.8495 96.216 32.8849 96.7599 34.0217C97.4406 35.5354 98.0692 37.0568 98.3977 38.7031C98.8344 40.8896 99.0333 43.0855 99.236 45.3073C99.6078 49.703 99.2621 54.1011 99.1802 58.4859C99.1791 58.8305 99.0961 59.1611 99.043 59.5136C98.7947 61.565 98.159 63.516 97.7989 65.5314C97.4634 67.3575 96.7886 69.0495 95.9981 70.6794C95.6541 71.3938 95.3101 72.1083 94.9661 72.8227ZM48.1042 60.3732C48.1338 59.8652 48.1466 59.5983 48.1633 59.3573C48.1859 57.9229 48.3722 56.5168 48.7483 55.135C49.2073 53.4227 49.8042 51.7426 50.2932 50.0522C50.9274 47.916 51.5097 45.7875 52.4534 43.7635C53.1374 42.3087 53.9372 40.9159 54.8865 39.633C56.9759 36.7469 59.6194 34.36 62.3902 32.1129C63.6464 31.1016 65.008 30.2599 66.3396 29.3962C67.9636 28.3559 69.568 27.186 71.4782 26.6324C72.5723 26.3081 73.6586 25.932 74.7866 25.6555C76.9203 25.1741 79.0203 24.6449 81.2519 24.8112C81.9252 24.8684 82.6166 24.87 83.3081 24.8715C83.8396 24.8707 84.1227 24.4569 83.9924 23.9466C83.87 23.4881 83.6033 23.1309 83.2626 22.8114C82.641 22.2164 82.0155 21.5954 81.3537 21.0859C79.9182 20.0308 78.3542 19.1807 76.5423 18.9774C75.4037 18.8315 74.2769 18.7632 73.1447 18.4838C72.8132 18.4014 72.4454 18.4305 72.1375 18.5035C70.9134 18.8474 69.6697 19.0619 68.5328 19.6311C65.9369 20.9243 63.2095 22.0519 60.9076 23.8836C59.8398 24.734 58.746 25.5882 57.8017 26.5524C56.4404 27.924 55.1468 29.3914 53.913 30.9028C51.1545 34.2875 49.0786 37.9666 48.3533 42.316C48.1966 43.2142 48.0698 44.1343 47.8312 45.0184C47.4668 46.4779 47.3702 47.9499 47.2736 49.422C47.1681 51.1869 47.1445 52.9659 47.2768 54.7214C47.3935 56.3732 47.6141 58.0093 47.7827 59.6533C47.8062 59.8087 47.9297 59.9226 48.1262 60.3434L48.1042 60.3732ZM98.2396 52.6126C98.3214 50.1624 98.2172 47.7137 98.0832 45.243C97.9253 42.0869 97.3815 39.0157 96.3439 36.019C95.8271 34.5337 95.0439 33.221 93.9203 32.1188C93.3286 31.5458 92.863 30.9271 92.4415 30.2488C92.0538 29.6184 91.6401 28.9919 91.2044 28.3953C90.8402 27.9203 90.1071 27.8191 89.4847 28.0986C89.0105 28.3028 89.077 28.7432 89.1097 29.1358C89.1595 29.8172 89.1573 30.5065 89.2851 31.1762C89.5406 32.5156 89.8261 33.8769 90.1817 35.1746C91.027 38.3063 91.2667 41.4765 90.845 44.6672C90.6586 46.0733 90.3944 47.4912 90.1521 48.8792C89.9124 50.1079 89.7585 51.3766 89.3511 52.5512C88.7803 54.2274 88.0677 55.8455 87.3591 57.4895C86.2117 60.1008 84.8928 62.632 83.917 65.3234C83.4291 66.6691 82.8555 67.9747 82.196 69.2403C80.8225 71.9388 79.1579 74.4692 77.5569 77.0696C76.4481 78.8801 75.3093 80.6686 74.047 82.3433C72.1225 84.913 70.5788 87.7166 68.6841 90.3083C68.64 90.368 68.6179 90.3979 68.5997 90.4536C68.3907 90.8297 68.5637 91.095 69.0433 91.1021C69.6789 91.0855 70.3286 90.9874 70.9072 91.2974C71.6651 91.7394 72.1978 91.3939 72.7369 90.915C73.815 89.9571 74.8672 89.0031 75.9831 88.1191C77.8083 86.6508 79.5658 85.0868 81.5561 83.8321C81.8965 83.6217 82.233 83.3854 82.5058 83.0792C83.3902 82.071 84.5114 81.3982 85.565 80.6295C86.0678 80.262 86.5627 79.8428 87.0655 79.4753C88.3775 78.4821 89.6779 77.4111 91.0537 76.4878C91.9449 75.8761 92.6762 75.2621 92.9654 74.185C93.099 73.6613 93.5081 73.202 93.8015 72.6807C95.0297 70.4282 96.3137 68.1937 96.7735 65.6068C96.8669 65.1687 97.0122 64.7228 97.1315 64.2808C97.7084 61.9412 98.0956 59.5772 98.2112 57.1748C98.296 55.625 98.2509 54.0949 98.2838 52.553L98.2396 52.6126ZM58.2599 86.769C57.9446 85.3857 58.1181 84.2465 58.0797 83.1128C58.0296 81.9014 58.3031 80.7206 58.3648 79.5453C58.511 76.2903 58.6053 73.0432 59.1011 69.8148C59.4805 67.3991 59.6142 64.941 60.2912 62.5597C60.762 60.9251 61.2289 59.2646 61.4761 57.5578C61.5046 57.3945 61.5851 57.2234 61.6435 57.0821C62.1976 55.6469 62.584 54.1575 63.0523 52.6823C63.6983 50.6237 64.4821 48.5974 65.1801 46.531C66.0676 43.9589 67.4477 41.657 68.9436 39.417C70.3291 37.3262 71.95 35.3854 73.5409 33.4225C75.1098 31.4896 76.8815 29.8439 79.1293 28.7093C80.3142 28.1063 81.4732 27.5072 82.7115 27.0816C82.9116 26.9983 83.1338 26.8853 83.33 26.7761C83.404 26.7384 83.4585 26.5712 83.4208 26.4974C83.409 26.4197 83.2894 26.3318 83.2036 26.2917C83.1178 26.2517 82.984 26.2454 82.8761 26.2352C79.5656 25.9669 76.3727 26.4759 73.2202 27.4292C71.1359 28.0621 69.1388 28.9203 67.3382 30.1993C66.2067 30.9798 64.9021 31.4949 63.8642 32.3672C62.5379 33.4421 61.1777 34.469 59.9568 35.7135C58.5033 37.1786 57.0719 38.6138 55.8097 40.2885C54.9487 41.452 54.375 42.7577 53.6297 43.9833C52.7196 45.5252 52.0928 47.1834 51.6597 48.8918C51.3096 50.2696 50.8777 51.6334 50.4457 52.9971C49.701 55.2826 49.206 57.6363 49.1983 60.0489C49.1897 60.8717 49.185 61.7204 48.7513 62.3689C48.167 63.2521 48.2623 64.0592 48.4552 64.984C49.03 67.7326 49.5749 70.4592 50.0717 73.2196C50.8319 77.3711 52.0339 81.4559 52.5342 85.6467C52.5773 85.9316 52.6684 86.1829 52.9336 86.3548C55.1554 85.2241 55.3712 85.2445 58.2639 86.7949L58.2599 86.769ZM59.3297 89.0983C59.0619 89.0858 58.7903 89.0473 58.5225 89.0348C58.4446 89.0465 58.3043 89.1737 58.3121 89.2255C58.3096 89.3849 58.3851 89.5325 58.4566 89.6542C58.4904 89.7021 58.6763 89.7005 58.7464 89.6369C58.9309 89.45 59.1114 89.2373 59.2958 89.0504C59.5063 88.8596 59.7466 88.6908 59.9571 88.5C61.8171 86.735 63.4901 87.2507 64.9982 88.0828C65.9837 88.6229 66.4846 89.4747 66.471 90.6162C66.4777 91.0127 66.3766 91.399 66.3573 91.7994C66.3651 91.8512 66.5186 91.987 66.5966 91.9752C66.7044 91.9854 66.8526 91.9101 66.8668 91.8284C67.0082 91.3565 66.8558 90.8761 67.2351 90.3948C69.7365 87.4199 71.6059 83.9575 73.898 80.8288C76.0134 77.9388 77.822 74.7771 79.6683 71.6892C80.7953 69.823 81.8365 67.9167 82.5904 65.8683C83.6284 63.0616 84.8719 60.3827 86.1115 57.678C87.2304 55.23 88.2933 52.764 88.7934 50.0915C89.0862 48.5103 89.4349 46.9472 89.5938 45.3597C89.9273 42.2884 89.993 39.2045 89.1373 36.1804C88.5486 34.0434 87.982 31.8766 88.0131 29.6195C88.0078 29.4083 87.9466 29.179 87.8853 28.9498C87.7746 28.569 87.79 28.1427 87.4051 27.8829C87.0801 27.667 86.7539 27.7958 86.4082 27.795C86.1704 27.8044 85.9507 27.7581 85.7271 27.6859C84.9264 27.4889 84.1467 27.6067 83.3644 27.8839C81.9481 28.3629 80.6111 29.0154 79.282 29.7197C78.0489 30.3565 76.8953 31.1668 75.9848 32.1788C74.186 34.1731 72.421 36.2152 70.7755 38.3452C68.3457 41.4418 66.7557 44.9944 65.4491 48.6633C64.7212 50.7077 64.0232 52.7741 63.3772 54.8327C62.7999 56.6423 62.3305 58.4622 61.917 60.3001C61.8522 60.5749 61.7874 60.8497 61.7226 61.1245C61.1079 63.3903 60.6531 65.6585 60.3698 68.0067C59.943 71.5161 59.5981 75.0396 59.391 78.5953C59.2185 81.3243 59.1538 84.0635 58.9553 86.7964C58.8947 87.6271 58.9562 88.3862 59.2556 89.136L59.3297 89.0983ZM79.7547 16.1336C83.7644 16.4553 87.7132 17.0776 91.548 18.3532C93.4225 18.9709 95.1061 19.909 96.5587 21.253C97.0567 21.7342 97.5769 22.1856 98.1411 22.5773C100.827 24.3444 102.882 26.6839 104.686 29.2997C105.16 29.9701 105.455 30.694 105.681 31.4814C105.971 32.524 106.414 33.5171 106.908 34.5024C108.108 36.8121 108.873 39.2403 109.105 41.8287C109.223 43.1359 109.678 44.392 109.926 45.6796C110.24 47.4075 110.097 49.0986 109.902 50.7976C109.624 53.357 108.907 55.8238 107.63 58.1101C106.728 59.7039 105.971 61.3817 105.069 62.9755C103.433 65.8726 101.528 68.5718 99.0511 70.8276C97.4858 72.2565 96.1078 73.8692 94.445 75.1804C92.1392 76.9862 89.8971 78.862 87.456 80.4763C86.7791 80.923 86.162 81.4137 85.519 81.9084C82.548 84.2387 79.5472 86.5471 76.6399 88.9473C74.7966 90.4713 72.9013 92.0031 71.3727 93.8505C69.2622 96.4218 67.1479 98.9672 65.4561 101.846C64.2266 103.913 63.3961 106.159 62.9609 108.557C62.8999 108.857 62.9651 109.112 63.1082 109.356C63.293 109.699 63.4816 110.068 63.6404 110.415C63.9163 111.009 63.9842 111.635 63.9183 112.254C63.784 113.653 62.9682 114.412 61.5437 114.309C60.9784 114.262 60.686 114.439 60.4628 114.896C60.2797 115.269 60.0928 115.615 59.9357 115.983C59.2958 117.378 58.1006 118.089 56.6148 117.757C54.9913 117.393 53.4002 116.891 51.8533 116.33C50.6456 115.903 49.7171 115.036 48.8328 114.11C48.3308 113.603 48.1746 113.096 48.5524 112.43C48.8679 111.878 49.0716 111.291 49.2753 110.704C49.4284 110.31 49.2853 110.066 48.842 109.948C48.4547 109.847 48.0531 109.829 47.7864 109.471C47.3247 108.879 47.2047 108.261 47.5487 107.546C48.0095 106.549 48.8188 105.923 49.7296 105.441C50.174 105.215 50.4246 104.939 50.566 104.467C50.8164 103.661 51.0927 102.85 51.2014 101.986C51.4137 100.576 51.678 99.1582 51.8643 97.752C51.9833 96.7801 51.9723 95.8278 52.0354 94.8378C52.24 91.4414 51.6311 88.115 51.1561 84.7949C50.865 82.6925 50.4479 80.6355 50.0008 78.5566C49.5225 76.2705 49.0182 73.9882 48.6658 71.6565C48.5797 71.0866 48.4936 70.5166 48.3594 69.9804C47.3916 66.3902 46.9397 62.6956 46.4879 59.001C46.1196 56.0357 45.9671 53.0908 46.0225 50.1145C46.0632 48.6244 46.1598 47.1523 46.4981 45.6968C46.6563 44.9839 46.6727 44.2129 46.8048 43.504C47.327 40.8017 48.0727 38.1715 49.2916 35.6819C49.4305 35.3695 49.5694 35.057 49.7642 34.7626C51.3509 32.2439 53.117 29.8571 55.1822 27.6901C56.1005 26.7299 56.9629 25.7516 57.9449 24.8613C58.8347 24.0643 59.7883 23.3373 60.7717 22.6322C62.7126 21.226 64.7172 19.8896 67.0119 19.0659C67.1639 19.0165 67.338 18.9372 67.4822 18.8359C69.8365 17.5262 72.416 17.004 75.0073 16.5594C76.5849 16.2681 78.1625 15.9767 79.7807 16.1297L79.7547 16.1336Z" fill="black"/>
<path d="M58.9421 110.462C58.9307 110.915 58.9855 111.277 58.9285 111.604C58.786 112.42 58.4121 113.113 57.6235 113.523C57.057 113.821 56.4642 113.593 56.2143 112.994C56.0399 112.544 55.9993 112.099 56.1446 111.653C56.3301 111.122 56.5157 110.59 56.7272 110.055C56.9167 109.549 56.8113 109.38 56.2523 109.199L56.0846 109.145C55.5296 108.99 55.3815 109.066 55.1959 109.597C55.0104 110.129 54.9107 110.7 54.6692 111.214C54.2487 112.125 53.4458 112.618 52.6646 112.55C52.1512 112.495 51.8105 112.176 51.7881 111.676C51.7266 110.916 51.8847 110.204 52.2885 109.533C52.5015 109.183 52.7482 108.881 52.9352 108.534C52.9975 108.419 52.9622 108.186 52.8907 108.064C52.5941 107.685 52.195 107.507 51.7699 107.333C51.6022 107.278 51.3904 107.284 51.3099 107.455C50.9816 108.273 49.9384 108.934 50.6123 110.051C50.7593 110.321 50.5606 110.589 50.4698 110.868C50.3024 111.344 50.1389 111.845 49.9456 112.325C49.7159 112.916 49.8501 113.452 50.3143 113.886C50.5614 114.113 50.8124 114.367 51.1036 114.535C52.9823 115.709 55.1595 116.042 57.2782 116.517C57.39 116.553 57.5161 116.508 57.6239 116.518C58.2296 116.479 58.722 116.219 59.0076 115.646C59.3957 114.872 59.7878 114.124 60.1759 113.35C60.2966 113.093 60.3835 112.788 60.3704 112.525C60.2672 111.667 60.2199 110.826 60.4364 109.972C60.4909 109.804 60.3596 109.639 60.1919 109.584C59.5692 109.334 59.0066 109.658 58.9927 110.269C58.9823 110.377 59.0019 110.506 59.0019 110.506L58.9421 110.462Z" fill="black"/>
<path d="M89.2189 26.8668C89.9662 26.8864 90.512 26.804 91.0642 26.588C91.9946 26.2355 92.2022 25.6741 91.6312 24.8859C90.8572 23.8104 89.8365 23.0371 88.5249 22.6258C87.2432 22.2365 86.1751 22.5569 85.4739 23.7228C85.1948 24.1624 85.2093 24.6107 85.5319 24.986C86.5554 26.1298 87.7399 26.9313 89.2149 26.8409L89.2189 26.8668Z" fill="black"/>
</svg>
