<svg width="35" height="40" fill="none" viewBox="0 0 35 40" xmlns="http://www.w3.org/2000/svg"><path fill-rule="evenodd" clip-rule="evenodd" d="M20.95 14.569c1.527-2.236 3.4-4.153 5.722-5.537A8.281 8.281 0 0130.07 7.86c.902-.106 1.734.036 2.566.39 1.873.853 2.774 2.734 2.185 4.97a5.377 5.377 0 01-1.872 2.84c-.486.035-1.006.106-1.353.532-.104.142-.277.177-.45.248-.417.107-.798.142-1.145-.177-.139-.107-.173-.284-.104-.462.208-.426.624-.106.867-.248-.555-.071-1.075.248-1.63.248-.59 0-1.144-.355-1.768-.355-1.075-.035-2.15-.213-3.225.071-.832-.532-1.63-1.17-2.74-1.029a.641.641 0 01-.277-.07 1.081 1.081 0 01-.173-.25z" fill="#E59E7F"/><path fill-rule="evenodd" clip-rule="evenodd" d="M.458 13.752C-.756 11.374.7 8.357 3.509 7.932c1.145-.178 2.22 0 3.26.354a7.913 7.913 0 011.907.923c2.22 1.384 3.988 3.23 5.444 5.395-.416.426-.416.426-1.006.142-.173-.07-.173-.07-.173 0-.277 1.065-1.006 1.42-1.873.781-.45-.355-.728-.532-1.213.036-.278.319-.832.141-1.18-.178-1.247-.994-2.6-1.384-4.09-.745-1.25.532-2.393.035-3.503-.32-.832-.284 0-.887 0-1.348-.381.035-.035.922-.624.78z" fill="#E49B7B"/><path fill-rule="evenodd" clip-rule="evenodd" d="M34.544 26.104c.416.639.485 1.349.38 2.094-.311.107-.45-.107-.52-.32-.138-.283-.207-.46-.623-.496-.694-.071-.763-.71-.66-1.35-.415.391-.277.746 0 1.101.209.284.417.533.209.923-.07.142-.208.213-.347.248-.728.036-1.179-.567-1.838-.745-.346-.07-.693-.284-.901.249-.278.638-.624.212-.971.035-.139.355-.104.816-.624.887-.416.071-.624-.532-1.075-.32h-.416c-.937-.212-1.422-.602-1.769-1.49-.104.426-.312.675-.693.64-.278-.036-.382-.178-.451-.462-.139-.64-.59-.142-.902-.249-.346-.142-.728-.07-1.04.107a36.5 36.5 0 01-1.04-1.207c-.035-.071-.07-.177-.035-.248.07-.213.243-.39.416-.533.104-.106.208-.177.347-.248 1.526-.781 1.838-1.35 1.456-3.017-.138-.568-.069-1.065.278-1.562.104-.035.173-.035.243.036.624.248 1.317.248 1.976.39 1.56.32 3.052.78 4.473 1.455 1.144.568 2.22 1.278 3.12 2.236.452.497.903 1.03 1.11 1.704-.173.07-.311.177-.103.142z" fill="#E59E80"/><path fill-rule="evenodd" clip-rule="evenodd" d="M14.744 14.604c-.59-1.526-1.179-3.052-1.526-4.685-.138-.71-.381-1.384-.277-2.13.277-.532.45-1.135 1.283-.638.416.248.659-.036.763-.497.104-.497.416-.533.728-.284.485.355 1.04.426 1.56.674.07.036.174.071.243.142 1.456-.461 2.427.426 3.433 1.278.07.07.173.106.243.142.069.035.069.106.104.177V8.57c.138-.284.277-.532.658-.39 0 1.242-.381 2.414-.728 3.585-.277.887-.624 1.739-.936 2.59-.07.107-.104.285-.243.356-.659.177-1.352.32-1.976.639a2.36 2.36 0 01-.278.106c-.658.213-1.283.32-1.907-.071-.277-.142-.59-.107-.867-.107-.346-.07-.069-.496-.277-.674z" fill="#E59D7E"/><path fill-rule="evenodd" clip-rule="evenodd" d="M21.402 8.819c-.451.035-.867-.071-1.145-.462-.242-.32-.59-.497-.832-.851a.508.508 0 00-.763-.142c-.277.213-.624.177-.936.283-.173.036-.277-.141-.347-.283-.277-.178-.555-.178-.867-.249-.381-.106-.797-.177-1.005-.603-.07-.107-.173-.107-.243-.036a.386.386 0 00-.035.284c.035.107.105.142.174.249.104.142.034.248-.104.319-.243.071-.555 0-.763.178-.277.248-.416.248-.486-.178-.069-.248-.624-.213-.728.036-.034.106 0 .177.07.283.069.107.312.107.138.284-.104.107-.242 0-.381-.07-.07-.036-.104-.072-.173-.107a1.332 1.332 0 01-.035-.639c.139-.142.139-.284 0-.426-.139-1.881.243-3.656 1.387-5.182a.89.89 0 01.416-.39c.312.106.659.142.97.177 1.11.142 1.353.462 1.214 1.49 1.63-.318 3.19-.212 4.716.604.382.604.417 1.278.486 1.952.104.923.173 1.882-.104 2.804-.278.178-.486.39-.624.675z" fill="#E7A588"/><path fill-rule="evenodd" clip-rule="evenodd" d="M.458 13.752c.139-.106.277-.177.243-.39-.104-.462-.035-.568.346-.497.208.035.382.071.59.142-.07.213-.347.07-.416.213a4.46 4.46 0 00-.347.71c-.035.07.035.177.104.248.07.071.173.071.277 0 .07-.035.104-.106.174-.142.347-.248.381-.248.59.142.034.071.103.249.138.249.52.07 1.04.32 1.56.142.52-.142 1.006-.355 1.56-.32.209 0 .347-.177.52-.284.278-.142.521-.142.764.036.346.284.728.497 1.179.497.346 0 .693.177.867.461.242.355.52.462.901.462h.312c.035-.249.104-.462.139-.71.485.035.867.177 1.179.532.416.461 1.179.39 1.56-.107.139-.177.104-.354-.139-.496-.069-.071-.173-.107-.277-.142.624-.107.659-.142.971.07.277.214.52.285.798.036.138.071.208.178.242.355-.138.639-.97.816-1.005 1.526-.07.213-.174.426-.278.64-.173.354-.346.709-.659.957-.346.213-.728.32-.901.746-.104.284-.277.461-.624.426-.312-.071-.416-.284-.486-.568-.277-1.03-1.317-1.278-2.08-.568.243.142.624.142.555.568-.035.355-.382.284-.625.426-1.837-.39-3.571-1.065-5.131-2.13-1.11-.745-2.012-1.668-2.601-2.91a.503.503 0 000-.32z" fill="#E39677"/><path fill-rule="evenodd" clip-rule="evenodd" d="M10.756 29.085c-1.664 1.633-3.571 2.733-5.894 2.982-1.075.106-2.15-.071-3.052-.71-.867-.604-1.49-1.349-1.63-2.45.59-.319 1.457-.248 1.804-.78.624-.994 1.317-.461 2.01-.355.105.071 0 .213.07.32 0-.072.035-.142.104-.178.208-.07.381-.177.45-.39.14-.142.278-.213.486-.142.312.213.555.461.971.497.59.07.763.603 1.006 1.029.138-.142.208-.355.347-.533.485-.319 1.074-.39 1.56-.78.312-.249.693-.213.901.213.174.461-.242.745-.381 1.1.416.213.902-.284 1.248.177z" fill="#E7A88C"/><path fill-rule="evenodd" clip-rule="evenodd" d="M21.818 35.9c0 .248 0 .461-.208.639-1.18-.639-2.323-.249-3.468.035-.416.107-.07.355.035.533.07.07.104.142.139.248.069.178.034.497.242.533.971.142.832.851.832 1.526-1.04.745-2.184.71-3.294.284-.52-.213-1.04-.462-1.352-.959a.734.734 0 01.347-.496c.97-.675.416-1.846.763-2.698.104-.248-.382-.532-.555-.355-.59.532-1.491.426-1.977 1.1-.312-.568-.381-1.206-.416-1.845-.035-.568-.104-1.136.035-1.704.347-.426.763-.461 1.213-.177.313.213.451.532.52.851v.142c-.034.071-.069.178-.138.213-.035.036-.07.036-.07.036.035-.036.105-.071.14-.142.173-.178.415-.178.623-.213h.278c.104 0 .173.035.277.035.07 0 .174.036.243.071.07-.07.277.32.277-.07 0-.072 0-.178.035-.249.173-.284.45-.426.763-.32.347.107.624.178.659-.354 0-.071.07-.107.138-.142.313-.178 1.665.32 1.942.71-.242.319-.624.603.104.78.555.142 1.075.462 1.665.568.312.497.312.959.208 1.42z" fill="#EBB69D"/><path fill-rule="evenodd" clip-rule="evenodd" d="M4.446 22.235c.797-.568 1.733-.852 2.67-1.136 1.248-.39 2.496-.745 3.814-.745.104.39-.243.426-.451.532-1.838 1.172-1.872 2.875-.07 4.047.14.106.278.177.382.32-.277 1.1-.901 1.525-1.872 1.1-.729-.32-1.595.106-2.289-.533-.139-.142-.416.07-.52.248-.416.64-1.283.462-1.803 1.1-.278.356-1.04-.283-1.422-.638-.312-.284 0-.604.312-.781.07-.035.07-.071-.07-.107-.277-.106-.38-.248-.277-.532.14-.284.59-.142.59-.674.035-.568.728-.284 1.11-.568-.867-.497-.278-1.065-.104-1.633z" fill="#E6A284"/><path fill-rule="evenodd" clip-rule="evenodd" d="M20.777 26.565c.243.746.486 1.455.694 2.2.07.285.104.604.173.888-.381.284-.693-.284-1.04-.07-.139.07-.347.106-.035.283a.488.488 0 01.174.71c-.174.32-.486.284-.798.248-1.144-.177-1.942-1.029-2.843-1.632.07.284.208.497.485.603.347.142.798.32.625.781-.209.497-.66.284-1.075.177a1.668 1.668 0 01-.243-.106c-.07-.035-.139-.106-.208-.177-.035-.036-.07-.071-.104-.071-.208-.178-.451-.32-.624-.533-.278-.461-.66-.71-1.18-.816-.415-.071-.832-.213-1.04-.639-.034-.426.208-.78.312-1.171l.313-1.065a.311.311 0 01.242-.107c.624.107 1.214.426 1.838-.248.312-.355.97-.178 1.456 0 .833.32 1.63.284 2.462.035.104 0 .174.036.243.107 0 .07 0 .142.035.177.07.142.034.32.138.426z" fill="#E7A88C"/><path fill-rule="evenodd" clip-rule="evenodd" d="M24.21 15.846c.035-.142.035-.284.174-.354.277-.107.555-.178.867-.249.173-.036.208.071.277.213.07.284.208.32.45.142.382-.284.729-.426 1.18-.178.277.143.659.143.97.178.313.035.59.035.833.284.173.177.416.142.52-.036.208-.319.381-.248.659-.07.173.106.381.035.555-.107.138-.107.242-.213.381-.32.104-.07.208 0 .277.072.14.142.174.354.035.46-.347.214-.659.604-1.144.25-.035-.036-.174.07-.208.141-.07.107 0 .213.104.249.347.177.728.213 1.04 0 .208-.142.45-.249.624-.462.382-.461.416-.461.971-.106.07.035.104.07.174.106-.347.497-.833.781-1.318 1.1-1.457.959-3.052 1.527-4.716 1.953-.797.213-1.63.32-2.462.497l-.104-.107c-.07-.852.07-1.739-.173-2.59 0-.285-.035-.604.034-.888v-.178z" fill="#E39777"/><path fill-rule="evenodd" clip-rule="evenodd" d="M32.914 28.233l.208-.212c.45.745 1.456 1.277 1.005 2.449-.554.851-1.387 1.242-2.323 1.49-.901.249-1.803.178-2.704-.07-1.353-.356-2.601-.924-3.676-1.846-.07-.036-.139-.107-.173-.142a.621.621 0 00-.243-.178h.035a.432.432 0 00-.278-.213c-.07 0-.104-.035-.139-.106-.069-.036-.138-.071-.173-.142l-.035-.036a.924.924 0 01-.208-.177c-.069-.071-.138-.142-.208-.178l-.208-.212c-.416-.852.486-.959.798-1.065.693-.249.936.497 1.213.958.209.39-.069.568-.242.603.416-.213.867-.745 1.49-.922h.417c.485.78-.347.745-.555 1.1.694-.284 1.387 0 2.08.142.451.106.867.177 1.145-.32.07-.106.173-.248.312-.248.867.07 1.595-.497 2.462-.675z" fill="#E7A98D"/><path fill-rule="evenodd" clip-rule="evenodd" d="M16.963 30.505c.312.036.659.107.971.107.035 0 .104-.071.139-.142 0-.071 0-.142-.07-.178-.104-.07-.208-.177-.346-.213-.278-.035-.52-.106-.729-.32-.208-.212.035-.532-.208-.78-.104-.107.07-.178.14-.142.138 0 .277 0 .38.106.243.178.382.462.763.39.035 0 .14.072.14.107.103.497.658.497.9.852.035.071.174.142.243.107.313-.107.555 0 .798.212.104.107.243.036.381-.07.14-.107.14-.213.07-.355-.07-.178-.174-.32-.382-.249-.173.036-.312.107-.45-.035-.035-.036-.035-.178-.035-.178a2.36 2.36 0 01.277-.106.64.64 0 00.416-.249c.312-.39.312-.39.624-.177.174.142.347.355.59.39.59 2.023.728 4.046.277 6.105 0 .071-.069.107-.104.178l-.208-1.278c-.173-.533-.52-.817-1.04-.923-.312-.071-.659-.142-.763-.532-.138-.178-.347-.213-.555-.213-.45 0-.866-.071-1.248-.32-.173.142-.035.32.035.426.104.248-.035.39-.208.532-.208.142-.278-.035-.416-.142-.451-.425-.555-.39-1.04.107-.347-.426-.347-.462.034-.745.52-.355 1.04-.71 1.664-.994-.381.07-.693 0-.866-.355-.14-.249-.451-.533-.174-.923z" fill="#E8AD93"/><path fill-rule="evenodd" clip-rule="evenodd" d="M21.644 3.424c-.554.035-1.11.035-1.63-.32-.277-.213-.693-.177-1.074-.248-.07 0-.139 0-.208.035-.243.071-.243.568-.59.39-.173-.106-.312-.319-.555-.39-.277-.106-.312-.142-.312.213 0 .178.035.355-.138.426-.208.107-.382-.035-.555-.106-.139-.071-.07-.178 0-.249.173-.213.139-.426-.035-.639-.139-.177.035-.212.174-.212.138 0 .208-.107.104-.178-.486-.355-.971-.603-1.595-.426-.382.107-.382.071-.52-.461 1.178-1.42 3.57-1.775 5.235-.355.832.603 1.491 1.42 1.7 2.52z" fill="#E8AE93"/><path fill-rule="evenodd" clip-rule="evenodd" d="M16.963 30.505c-.035.497.52.674.555 1.136.104 0 .208 0 .277-.036.278-.106.52-.035.729.142.069.213-.14.178-.209.249-.104.106-.173.213-.312.248-.381.107-.728.249-1.005.604-.139.142-.416.142-.624.248-.208.107-.243.32-.035.497 0 .355-.173.355-.416.213h-.208l-.035-.071.035-.071-.07.035-.104.107h-.208c-.242-.249-.589.035-.797-.213-.173-.249 0-.674-.416-.816a1.782 1.782 0 00-1.214 0c-.07-1.278.173-2.52.59-3.727.346.248.693.568 1.179.426.59-.213.936.142 1.213.603.208.355.59.071.832.213.105.071.174.142.243.213z" fill="#E7A98D"/><path fill-rule="evenodd" clip-rule="evenodd" d="M2.85 25.145c.035.178.07.355.278.32.243-.035.45-.142.693-.107.139.036.278.107.278.249 0 .142-.104.248-.243.284-.243.106-.555 0-.763.177-.07.071-.139.142-.139.249-.034.106.07.213.174.213.381.035.659.284.936.532.07.071.173.107.277 0 .07-.07.035-.177 0-.284-.069-.142-.208-.248-.173-.461.173.035.347 0 .485.07.52.214.902-.07 1.214-.46.624-.675.694-.71 1.352-.072.209.213.347.284.59.142.104-.07.243-.106.381-.177.174-.071.312-.036.451.07.139.107.243.25.382.32.381.213.658.178 1.005-.106.243-.213.52-.462.659-.781.208-.213.52-.107.763-.213.936-.177 1.56.213 2.011 1.03-.45.674-.97 1.313-1.595 1.81-.243-.284-.139-.568-.07-.888.07-.39-.173-.532-.45-.674-.312-.178-.382.106-.52.284-.451.497-.971.816-1.665.603-.381-.106-.797 0-1.179-.035-.52 0-1.04 0-1.525-.249-.104-.106-.243-.213-.347 0-.312.284-.763.036-1.04.39l-.417.214c-.901.035-1.837.142-2.288-.959 0-.035 0-.106-.035-.142-.034.071-.034.142-.07.178-.623.568-1.247.32-1.837-.036-.07-.106-.07-.213 0-.284-.035-.07 0-.142.07-.177a.575.575 0 00.138-.249c.59-.603 1.18-1.277 2.15-.887 0 .035.035.071.07.106z" fill="#E4A487"/><path fill-rule="evenodd" clip-rule="evenodd" d="M19.39 39.45a5.378 5.378 0 00-.346-.604c-.035-.071-.104-.142-.035-.249.104-.284.07-.319-.173-.284-.173 0-.312.036-.486.036-.173 0-.312-.106-.277-.32.035-.248.07-.46.104-.71-.139-.07-.312-.141-.45-.212-.313-.142-.348-.355-.035-.604.312-.284.728-.39 1.11-.426.485 0 .97-.284 1.49-.07.139.07.312-.107.451-.178.347-.178.45-.142.694.106.138.178.207.355.242.568-.416 1.313-1.11 2.343-2.288 2.946z" fill="#ECBCA6"/><path fill-rule="evenodd" clip-rule="evenodd" d="M13.322 36.29c.035-.213.035-.425.104-.603.104-.355.208-.39.59-.248.381.106.485.106.693-.178.035-.035.035-.142.07-.177.069-.071.138-.178.208-.213.312-.249.762-.107 1.213.39.243.248.208.568-.173.852-.208.177-.243.32-.139.497.07.106.139.248.208.355.174.355.208.355-.138.603-.14.107-.278.213-.313.39-.069.569-.52.64-.936.817l-.208-.213c-.59-.639-1.005-1.384-1.179-2.272z" fill="#EDBFA9"/><path fill-rule="evenodd" clip-rule="evenodd" d="M27.054 28.233c-.104.142-.174.355-.312.39-.486.107-.763.462-.937.888-.381-.177-.693-.32-1.04-.497.278-.284.52.071.763-.035.104-.036.208-.249.139-.32a3.229 3.229 0 01-.694-.851c-.07-.142-.208-.178-.346-.142-.14.07-.174.177-.105.319.07.213.07.32-.208.284-.416-.106-.416-.071-.485.39a6.723 6.723 0 01-1.595-1.703c.035-.107.035-.213.07-.284.207-.497.277-.533.693-.213.208.142.381.248.624.106.07-.035.173-.106.277-.142.243-.07.486-.142.66.071.138.178.034.39-.07.568-.035.071-.104.178.034.249.14.07.278.07.382-.036.07-.07.139-.142.173-.248.07-.142.07-.32.174-.462.173-.213.381-.355.485-.248.139.177 0 .32-.07.461-.103.249-.173.426.14.568a.965.965 0 01.45.39c.174.355.486.391.798.497z" fill="#E7A588"/><path fill-rule="evenodd" clip-rule="evenodd" d="M.423 26.6c.347-.035.659.036.971.143.347.106.659 0 .832-.355.07-.071.139-.071.208 0 .208.639.694.887 1.249.994.312.07.658.035.97.248.035.178.278.284.243.533-.277-.036-.555-.072-.832-.143-.208-.248-.485-.248-.728-.177a.78.78 0 01-.728-.142c-.139-.106-.243 0-.174.177.07.107.139.285-.034.355-.555.249-1.145.533-1.734.746-.139.035-.312-.071-.486-.107-.312-.71-.173-1.384.07-2.094.034-.106.07-.177.173-.177z" fill="#ECB9A2"/><path fill-rule="evenodd" clip-rule="evenodd" d="M13.496 26.14c-.174-.107-.382-.143-.52-.285-.451-.567-1.075-.567-1.7-.532-1.699-.107-1.664-1.278-1.595-2.556.07-1.1.937-2.13 2.046-2.236.347.426.347.817.07 1.314-.729 1.313-.243 2.59 1.178 3.052.347.107.763.107.833.604 0 .106-.035.177-.104.283.034.178-.07.284-.208.355z" fill="#EDBCA4"/><path fill-rule="evenodd" clip-rule="evenodd" d="M11.727 20.602c-.59.213-1.005.675-1.387 1.136-.277.355-.416.746-.312 1.242.07.249.035.533.139.781.104.32.07.533-.277.64-.105.035-.14.177-.07.248.07.07.208.177.243.142.659-.355.936.142 1.213.567-.207.213-.416-.035-.589 0-1.04-.212-1.63-.851-1.907-1.88-.208-.746.173-1.775.763-2.308.416-.355.901-.532 1.352-.78.277-.072.52-.143.798-.213.173-.107.381-.178.554-.036.174.213.035.39-.138.532-.104.036-.278.036-.382-.07z" fill="#E9AF95"/><path fill-rule="evenodd" clip-rule="evenodd" d="M8.294 19.112c.104-.071.208-.178.312-.249.104-.07.208-.177.14-.355-.07-.142-.244-.213-.348-.106-.208.213-.312.07-.485-.071-.104-.142-.139-.248 0-.32.277-.142.485-.248.624-.603.208-.461.659-.461.936-.07.07.07.104.177.174.248.104.177.208.177.416.07.381-.248.346-.212.52.107.139.248.208.461.035.745-.104.142.034.32.173.462.104.106.381.07.416-.071.035-.107.07-.213.07-.284 0-.39.207-.532.554-.568.174-.035.312-.107.451-.178.312.604-.104 1.136-.208 1.669a.596.596 0 01-.208.213c-.867-.142-1.7-.284-2.566-.426-.312-.036-.659-.142-1.006-.213z" fill="#E49D7E"/><path fill-rule="evenodd" clip-rule="evenodd" d="M8.086 26.991h.486c.312-.035.624-.106.936.142.139.107.382.107.486-.177.034-.107.138-.142.242-.107.243.071.382-.07.451-.284.07-.248.139-.497.208-.78.416.142.59.638 1.075.567.173-.035.347.568.208.781-.173.284-.173.568-.277.852l-.208.213-.07-.035.035.07c-.07.178-.208.284-.381.39-.729.143-1.318 0-1.596-.78-.138-.177-.346-.248-.52-.106l-.728.532c-.243.213-.485.32-.797.107-.035-.036-.104.035-.174.07-.381-.213-.624-.532-.45-.958.138-.32.52-.32.762-.177.243.106.486.177.729.07-.14-.106-.486.036-.417-.39z" fill="#E9AF95"/><path fill-rule="evenodd" clip-rule="evenodd" d="M34.093 30.47c0-.071 0-.142-.035-.213-.208-.249.035-.604-.139-.888-.173-.284-.485-.32-.762-.426-.14-.07-.14-.213-.035-.32.208-.212.208-.425-.035-.602.035-.142.104-.249 0-.39-.139-.143-.277-.32-.416-.462-.208-.178-.208-.426-.173-.64.069-.248.138-.532.208-.816.07 0 .173-.035.277-.035.174 0 .416-.142.555.107.139.283-.07.425-.277.567-.209.178-.174.284.103.249.14 0 .14.07.105.213-.07.426 0 .532.346.355.174-.071.278-.178.451-.071.07.035.208.142.208.177-.208.462.174.675.382.923.138.887-.174 1.633-.763 2.272z" fill="#E7A588"/><path fill-rule="evenodd" clip-rule="evenodd" d="M4.446 22.235c.034.178.069.32.173.462.104.142.45.177.243.425-.104.143-.278-.07-.416-.142-.104-.035-.209-.035-.243.072-.035.106 0 .213.07.248.138.07.311.106.45.177.173.107.312.249.277.497-.034.213-.277.355-.52.355s-.45-.035-.693-.07c-.104 0-.208.035-.208.177-.035.106.069.177.138.213.104.035.174.106.139.213-.035.07-.139.177-.208.177-.277.036-.52.036-.798.036-.485-.142-.901-.355-1.178-.817.728-.887 1.664-1.561 2.774-2.023z" fill="#E39B7C"/><path fill-rule="evenodd" clip-rule="evenodd" d="M15.75 30.292c-.14-.106-.174-.284-.243-.426-.139-.213-.312-.355-.555-.177-.381.32-.763 0-1.144.035-.07 0-.174-.142-.174-.213a2.14 2.14 0 01-.069-.497c0-.213 0-.461.208-.639.59.142 1.075.462 1.7.497.242 0 .485.178.554.497.035.178.139.32.208.462-.035.39-.173.532-.485.461z" fill="#EBB8A1"/><path fill-rule="evenodd" clip-rule="evenodd" d="M9.681 27.808c.105-.107.243-.213.347-.32.208.142.035.32.035.462.035.354.139.496.485.46.278-.035.52-.141.694.178-.139.213-.312.39-.555.497-.312-.035-.555.036-.832.213-.382.249-.659.142-.902-.248-.104-.142-.069-.32.07-.462.069-.07.173-.106.242-.142.416-.07.416-.355.416-.639z" fill="#ECB9A2"/><path fill-rule="evenodd" clip-rule="evenodd" d="M1.671 24.294c.208 0 .416-.036.52.177.14.284.451.39.625.64-.174.035-.312.07-.486.07-.243 0-.52-.142-.763.071-.173.178-.52.213-.381.604.035.07-.139.07-.243.07-.139 0-.277 0-.381-.035.208-.639.59-1.136 1.11-1.597z" fill="#E6A284"/><path fill-rule="evenodd" clip-rule="evenodd" d="M13.114 16.45c.07-.497.312-.888.763-1.136a4.2 4.2 0 00.485-.355c.07 0 .104 0 .14.036.276.106.415.319.311.638-.485.426-.97.852-1.699.817z" fill="#E4A588"/><path fill-rule="evenodd" clip-rule="evenodd" d="M20.639 14.995c0-.071 0-.142-.035-.178.104-.07.208-.177.347-.248.07 0 .173.035.243.035.034.426-.14.568-.555.39z" fill="#E9B197"/><path fill-rule="evenodd" clip-rule="evenodd" d="M34.544 26.104a.26.26 0 01-.14.07c-.069-.106 0-.177.105-.248a.394.394 0 01.035.178z" fill="#E7A588"/><path fill-rule="evenodd" clip-rule="evenodd" d="M.423 26.6c-.07.072-.139.107-.173.178-.035-.177 0-.32.139-.426.034.071.034.142.034.249z" fill="#E6A284"/><path fill-rule="evenodd" clip-rule="evenodd" d="M12.906 6.76c.208.142.208.284 0 .426a.883.883 0 010-.426z" fill="#E59D7E"/><path fill-rule="evenodd" clip-rule="evenodd" d="M23.794 28.66l.208.212a.316.316 0 01-.208-.213zM25.008 29.689c.07.07.139.142.242.177-.138 0-.207-.07-.242-.177zM24.765 29.476a.432.432 0 01.277.213c-.138 0-.242-.071-.277-.213zM25.25 29.866c.07.036.14.107.174.142-.104.036-.174-.035-.174-.142zM24.002 28.837c.07.07.139.142.208.177-.104 0-.173-.035-.208-.177z" fill="#E7A588"/><path fill-rule="evenodd" clip-rule="evenodd" d="M14.536 38.562c.07.07.139.142.208.213a.316.316 0 01-.208-.213z" fill="#EBB69D"/><path fill-rule="evenodd" clip-rule="evenodd" d="M24.453 29.263c.07.035.104.106.174.142-.104 0-.14-.071-.174-.142zM24.245 29.05c.07.07.139.106.208.177-.139 0-.208-.07-.208-.177z" fill="#E7A588"/><path fill-rule="evenodd" clip-rule="evenodd" d="M13.946 25.536v.213c-.069.036-.104.036-.173.071 0-.107-.035-.178-.035-.284.07-.071.14-.071.208 0z" fill="#E4A487"/><path fill-rule="evenodd" clip-rule="evenodd" d="M.596 25.926c-.034.071-.104.178-.138.249-.035-.142.034-.213.138-.249z" fill="#E6A284"/><path fill-rule="evenodd" clip-rule="evenodd" d="M20.639 14.995c.277 0 .45-.178.555-.426h.208c.208.213.312.461.659.568 1.005.319 1.63.887 1.768 2.13.104.745.139 1.49.173 2.27l-.069.036h-.07c-.277.142-.589 0-.866.142-.139.036-.243.036-.382.071-.208.213-.45.213-.728.107-.381-.32-.035-.568.139-.746.45-.461.347-.816-.035-1.206-.901-.959-1.179-1.03-2.358-.568-.242.106-.485.248-.763.213a.724.724 0 01-.208-.142c-.034-.142-.069-.284-.277-.249-.173 0-.312-.07-.45-.177-.556-.249-1.006-.852-1.7-.39-.104.177-.208.425-.45.496a.906.906 0 01-.417-.106c-.277-.213-.797-.32-.347-.817.313.036.382-.177.451-.426.278-.248.59-.213.936-.177.555.071 1.04-.036 1.491-.39.625.248 1.283-.604 1.908.106 0 .071 0 .142.034.213.035.142-.034.284-.07.39.105-.106.209-.213.348-.319.208-.178.346-.39.52-.603z" fill="#EDBEA7"/><path fill-rule="evenodd" clip-rule="evenodd" d="M24.002 19.538c-.034-.178-.07-.355-.277-.355-.104 0-.243.142-.382 0 .035-.284.313-.39.486-.604.139-.177.139-.355 0-.567-.139-.178-.277-.355-.416-.568-.07-.107-.174-.32-.07-.39.451-.32.035-.498-.069-.746-.208-.426-.555-.639-.936-.887-.208-.143-.347-.071-.555.035-.243.142-.45 0-.485-.284 0-.213.034-.39.069-.603.485.035.97-.071 1.456.142a3.188 3.188 0 011.353 1.1c.208.248-.035.603.208.816 0 .142 0 .284.034.39.278.817.208 1.633-.034 2.45a1.22 1.22 0 01-.382.07z" fill="#E9B197"/><path fill-rule="evenodd" clip-rule="evenodd" d="M32.914 28.233c-.139.213-.347.178-.52.249-.139.035-.208.142-.174.32.07.46.07.496-.312.39-.277-.071-.52-.071-.797-.107-.451-.035-.763.071-.902.568-.139.426-.208.426-.693.284-.555-.142-1.11-.284-1.63-.39-.416-.107-.798 0-1.18.106-.103.036-.207-.035-.207-.142 0-.035.035-.142.07-.142.38-.142.52-.639.935-.71.14-.035.035-.248 0-.354.278-.036.59-.142.763.212.035.071.174.107.243.107.139 0 .243-.071.347-.142.104-.071 0-.177-.035-.248-.139-.64 0-.675.52-.888.139-.07.243.036.243.213 0 .107-.07.213-.07.284 0 .107.07.177.174.213.104 0 .208 0 .208-.142 0-.106 0-.213.035-.32.07-.39.347-.567.693-.425.208.07.416.213.624.32.313.177.763.07.971.531.139.072.52-.035.694.213z" fill="#E7A588"/><path fill-rule="evenodd" clip-rule="evenodd" d="M23.205 20.212c.139 0 .312.035.45.035 0 .107.07.249.035.285-.312.354-.242.71-.104 1.135.208.604.278 1.207 0 1.846-.346.816-.97 1.278-1.803 1.384-.035-.035-.07-.07-.07-.106 0-.107 0-.178.035-.284.451-.71.694-1.491.555-2.343-.07-.426.104-.745.416-.958.035-.071.104-.107.139-.178v-.248-.248c.07-.178.173-.249.347-.32zM21.124 25.572c-.069-.072-.104-.142-.173-.213.07-.284.277-.39.52-.32l.104.106c-.07.213-.243.355-.45.427zM21.818 24.933c-.07.07-.139.142-.208.213v-.036c-.035-.177.034-.248.208-.177z" fill="#EAAF94"/><path fill-rule="evenodd" clip-rule="evenodd" d="M17.969 15.207c-.174.426-.416.675-.902.64-.346-.036-.659 0-1.005 0a.618.618 0 00-.52.248c-.382.035-.243-.284-.313-.462-.034-.106-.034-.248-.069-.354.035-.213.104-.426.382-.32.208.071.45.107.658.248.382.284.798.32 1.214.143.139-.107.347-.107.555-.143zM19.772 15.42c-.312-.284-.59-.248-.867.036-.104.107-.173.355-.381.284-.104-.036-.139-.213-.208-.32-.104-.07-.243-.106-.347-.177.659-.426 1.387-.71 2.184-.603.035.284-.173.496-.242.78 0 .036-.035.107-.035.143a.489.489 0 00-.104-.143z" fill="#E8AE94"/><path fill-rule="evenodd" clip-rule="evenodd" d="M21.402 8.819c.069 0 .138 0 .173.035.035.036.104.107.104.142 0 .036-.07.107-.104.107-.035 0-.104-.071-.139-.107-.034-.035-.034-.106-.034-.177z" fill="#E7A588"/><path fill-rule="evenodd" clip-rule="evenodd" d="M19.633 4.702c-.347-.355-.624-.533-.693-.923-.035-.249 0-.355.242-.462.208-.07.382.036.451.249.104.355.035.674 0 1.136z" fill="#E8AE93"/><path fill-rule="evenodd" clip-rule="evenodd" d="M17.38 7.364c0-.071 0-.142.034-.213.07-.142.173-.178.312-.107.035.036.07.107.07.178-.07.035-.174.07-.243.106-.07.036-.139.036-.174.036z" fill="#E59D7E"/><path fill-rule="evenodd" clip-rule="evenodd" d="M12.49 19.786c-.208-.035-.381-.07-.59-.07-.034-.64.313-1.208.417-1.811.208-.284.381-.568.59-.852.034.036.069.071.138.107.312.887.173 1.774-.07 2.626-.173.107-.311.107-.485 0z" fill="#EBB69D"/><path fill-rule="evenodd" clip-rule="evenodd" d="M14.779 15.598c.104.106.242.177.346.284.07.106.07.177-.034.248-.624.604-1.249 1.136-2.185.959l-.035-.036c.07-.213.14-.39.208-.603.52-.426 1.075-.746 1.7-.852z" fill="#EBB69D"/><path fill-rule="evenodd" clip-rule="evenodd" d="M7.497 14.853c0 .035.035.07 0 .07s-.035.036-.07.036c0-.035-.034-.07 0-.07.035-.036.07-.036.07-.036z" fill="#E49B7B"/><path fill-rule="evenodd" clip-rule="evenodd" d="M8.086 26.991c.208.32.555.107.833.32-.105.07-.174.106-.243.177-.139.142-.278.355-.451.39-.243.072-.277-.212-.45-.319a.389.389 0 00-.278-.106.641.641 0 00-.278.07c-.069.072-.104.178-.034.285.138.212.277.39.277.639.139.46.139.46-.139.638l-.624.32c-.208-.107-.069-.213 0-.32.104-.177.104-.32 0-.461-.104-.142-.346-.213-.381-.461-.035-.107-.139-.072-.243-.072-.728.072-.728.072-1.04-.71.035-.035.07-.035.07-.07 0-.142-.035-.32.034-.355.07-.071.243 0 .347 0 .208 0 .381 0 .52-.178.07-.07.139-.07.208 0 .659.036 1.248.284 1.872.213zM8.502 29.263c-.034.035-.034.142-.069.142-.173.035-.312.07-.416-.107-.07-.106 0-.177.104-.213.173-.035.312.036.381.178zM4.03 28.02c0 .036-.035.072-.035.072-.035 0-.035-.036.034-.072z" fill="#ECB9A2"/><path fill-rule="evenodd" clip-rule="evenodd" d="M19.772 33.167c.45.142.867.284 1.318.39.728.213.762.284.485 1.03-.347.213-.694.248-1.006 0-.346-.249-.728-.462-1.178-.426-.174 0-.313-.071-.382-.249a.566.566 0 01.104-.568c.208-.177.45-.142.659-.177z" fill="#EEC0AA"/><path fill-rule="evenodd" clip-rule="evenodd" d="M15.958 33.806c.173 0 .312-.036.416-.213.104.07.242.142.347.213.104.07.173.142.069.248-.07.071-.174.142-.243.107-.243-.036-.45-.142-.59-.355zM14.12 32.777c.45.07.555.035.416.816-.277-.213-.208-.568-.416-.816zM14.536 33.806c-.07.177-.104.39-.173.568 0 .035-.14.035-.174 0-.034-.036-.104-.107-.104-.142.035-.249.174-.426.451-.426z" fill="#E8AD93"/><path fill-rule="evenodd" clip-rule="evenodd" d="M14.536 33.593c.277.035.59-.071.797.213h-.797v-.213zM15.541 33.806l.208-.213v.213h-.208z" fill="#E8AD93"/><path fill-rule="evenodd" clip-rule="evenodd" d="M20.153 24.968c.104.32.208.639.278.958-.624.675-1.387.533-2.15.32-.624-.178-1.214-.32-1.872-.249-.104.178.104.178.138.284.07.142-.035.213-.104.249-.693.106-1.387.284-1.942-.355.07-.39.174-.745.416-1.03.347-.283.694-.425 1.075-.177 1.318.887 2.601.639 3.884-.07a.265.265 0 01.277.07z" fill="#EBB9A2"/><path fill-rule="evenodd" clip-rule="evenodd" d="M15.75 30.292c.173-.07.312-.213.416-.426.277 0 .485.142.59.426-.07.036-.174.106-.244.142-.416.284-.416.284-.763-.142zM16.963 30.505l-.208-.213.208.213z" fill="#E8AD93"/><path fill-rule="evenodd" clip-rule="evenodd" d="M24.418 16.663c-.277-.213-.173-.533-.208-.817.312.213.208.533.208.817z" fill="#E59E7F"/><path fill-rule="evenodd" clip-rule="evenodd" d="M18.489 1.862c.07 0 .139 0 .139.036a.38.38 0 01.069.177c-.07.107-.139.249-.208.32-.104.106-.208.177-.347.106-.139-.035-.104-.248.07-.426.069-.07.173-.142.277-.213zM17.38 1.862c.034.036.103.071.103.107 0 .07-.034.106-.104.07-.034 0-.069-.035-.069-.07-.035-.036 0-.107.07-.107z" fill="#E7A588"/><path fill-rule="evenodd" clip-rule="evenodd" d="M16.443 31.215c-.104-.036-.173-.071-.139-.213 0-.035.105-.071.174-.071.07 0 .138.035.138.071.035.142-.069.177-.173.213zM15.75 33.593l.034-.071.035.035-.07.036z" fill="#E8AD93"/><path fill-rule="evenodd" clip-rule="evenodd" d="M2.434 26.388h-.208c-.034-.107-.07-.178-.104-.284-.034-.107-.034-.213.07-.249a.375.375 0 01.277 0c.104.036.104.142.07.249-.035.07-.07.177-.105.284zM6.249 26.778H6.04c.104-.106.138-.106.208 0z" fill="#E6A284"/><path fill-rule="evenodd" clip-rule="evenodd" d="M18.385 36.61c-.07.035-.104.07-.173.07-.07 0-.104-.07-.07-.106 0-.035.07-.035.07-.035.104 0 .138.035.173.07zM18.385 37.178c0 .035.035.035.035.07-.07.036-.104.036-.174.072-.104.035-.104 0-.034-.071a.262.262 0 01.173-.071z" fill="#EBB69D"/><path fill-rule="evenodd" clip-rule="evenodd" d="M13.947 25.536h-.209c-.104-.178-.208-.355-.45-.284-.208.071-.382.036-.59-.071-.763-.461-1.387-1.065-1.56-2.023-.104-.533-.035-1.065.381-1.42.347-.284.312-.532.208-.887-.034-.107 0-.213 0-.32h.382l.104.107c.173.248.173.497.208.78.243 1.137.693 2.06 1.976 2.237a.673.673 0 01.486.32c.138.212.034.39-.139.532-.243.355-.52.71-.797 1.029z" fill="#EFC7B2"/><path fill-rule="evenodd" clip-rule="evenodd" d="M12.109 20.567c.07-.142.139-.248.208-.39v-.036c.277-.177.59-.177.901-.248a2.71 2.71 0 001.18-.249c.103 0 .207 0 .311.071.451.852.382 1.1-.45 1.065-.694 0-1.457.39-2.15-.213z" fill="#EFC7B2"/><path fill-rule="evenodd" clip-rule="evenodd" d="M11.658 28.198c-.173 0-.312-.035-.416-.213v-.071c0-.036.034-.036.07-.036a.413.413 0 01.346.32z" fill="#ECB9A2"/><path fill-rule="evenodd" clip-rule="evenodd" d="M19.98 24.933c-.035.177-.104.32-.277.39-.451.177-.867.32-1.318.497-.07.035-.139.071-.174.071-.797-.213-1.699-.035-2.323-.71-.242-.248-.45-.177-.693 0-.104.071-.174.036-.243-.07.035-.107.035-.25.07-.356.034-.248.069-.497.311-.639.451-.142.867-.284 1.353-.07.52.212.867-.356 1.317-.533.625-.355.763-1.136 1.318-1.562.07-.07.173-.106.243-.142.347-.106.728-.07 1.075-.248.208-.107.485-.178.485-.462 0-.284-.312-.32-.52-.39-.208-.071-.45-.107-.659-.213-.07-.035-.138-.106-.208-.177.139-1.1-.52-1.953-.901-2.875.52-.39 1.213-.39 1.664-.852.035-.036.139-.071.173-.036.313.142.66.213.867.462.312.355.694.639 1.006.994.347.39.277 1.029-.208 1.277-.208.107-.416.213-.52.426.173.355.59.107.797.32.243.177.278.461.416.71.07.07.14.141.208.212v.213c-.658.142-1.11.675-1.733 1.03.832.745.416 1.632.312 2.484v.213l-.208.213c-.208.071-.416.178-.625.249-.173-.213-.38-.426-.554-.64-.416-.212-.486-.71-.798-.993-.07-.071-.139-.142-.07-.284-.034.177.105.248.174.39.104.355.52.64.243 1.1z" fill="#EFC6B2"/><path fill-rule="evenodd" clip-rule="evenodd" d="M22.615 20.212c.07-.035.139-.035.208-.07.139.035.243.07.382.07-.104.178-.208.355-.208.568-.208-.107-.243-.355-.382-.568z" fill="#EDBAA2"/><path fill-rule="evenodd" clip-rule="evenodd" d="M23.031 19.715c.243-.248.555-.177.867-.142-.277.213-.59.178-.867.142z" fill="#E9B197"/><path fill-rule="evenodd" clip-rule="evenodd" d="M18.766 17.48c.174.177.416.354.555.567.416.568.832 1.171.45 1.917-.034.106 0 .284 0 .39-.207.355-.52.461-.866.213-.277-.213-.208-.462-.035-.71.382-.603-.104-.923-.52-1.1-.52-.249-1.04-.426-1.318-1.03-.104-.248-.38-.248-.624-.212-.312.07-.624.07-.728-.32 0-.035.035-.106.035-.142.243-.142.208-.39.208-.603.832-.462 1.456.355 2.22.426a.49.49 0 00.415.213.316.316 0 01.208.213v.177z" fill="#F3D5C4"/><path fill-rule="evenodd" clip-rule="evenodd" d="M13.496 19.786c-.174-.035-.382-.035-.555-.07-.104-.533-.208-1.101-.035-1.669.104-.32.035-.674.035-.994.208-.106.416-.248.624-.32.45-.106.867-.248 1.179-.638.07-.071.243-.036.381-.071.035.035.07.106.07.142-.104.213-.174.426.173.497.07 0 .139.106.208.177-.347.497-.659.994-1.248 1.242-.416.178-.347.497-.278.852.035.284.382.604.035.923-.243.107-.416.071-.59-.07z" fill="#EFC6B1"/><path fill-rule="evenodd" clip-rule="evenodd" d="M14.155 19.75c-.208-.283-.417-.603-.486-.993-.139-.533-.104-.675.381-.852.104-.071.243-.071.382-.142.243-.107.485-.248.555-.532.07-.355.347-.355.624-.355.07.07.139.142.208.213-.173.355-.243.816-.59 1.029-.589.426-.312 1.136-.624 1.633h-.208c-.138.07-.208.07-.242 0z" fill="#F3D5C4"/><path fill-rule="evenodd" clip-rule="evenodd" d="M18.177 16.876c-.416 0-.867.035-1.248-.284-.278-.213-.66-.107-.971-.142.104-.213.242-.39.554-.32.59.142 1.18.284 1.665.746zM18.766 17.266l-.208-.213c0-.07.035-.142.035-.177.035-.107.139-.142.243-.107a.78.78 0 01.104.178c.034.142-.07.248-.174.32z" fill="#EFC6B2"/><path fill-rule="evenodd" clip-rule="evenodd" d="M21.783 24.72c-.139-.284-.381-.533-.104-.888.208-.284.173-.639-.07-.958-.173-.213-.312-.497-.485-.78.416-.285.867-.427 1.214-.782.208-.213.59-.106.867-.106-.139.106-.243.213-.382.32-.173.106-.346.212-.242.496.034.107.034.213.034.32.104.887-.104 1.703-.832 2.378zM23.205 20.993l-.208-.213c.07.07.138.142.208.213z" fill="#EDBAA2"/><path fill-rule="evenodd" clip-rule="evenodd" d="M14.536 19.75c-.035-.212-.139-.46-.139-.674 0-.355-.034-.71.382-.958.277-.142.485-.426.59-.78.034-.178.207-.25.38-.25.105.178.209.356.486.25.035 0 .07-.036.104-.036.867-.32.867-.32 1.144.639.07.248.208.39.416.354.798-.035 1.145.604 1.595 1.065.105.107.07.284-.034.39-.07.107-.208.178-.312.25-.139.106-.278.212-.174.39.104.177.278.142.451.07.139-.035.243-.07.382-.106.59.745.52.994-.416 1.668-.902.142-.798 1.1-1.214 1.633-.243.39-.763.284-1.006.603-.242.284-.381.284-.59 0-.103-.142-.277-.177-.45-.106-.243.106-.52.177-.763.142 0-.071.035-.142.035-.213.07-.071.034-.178.034-.284v-.071l-.069.035c-.07.036-.104.071-.173.107-.07.07-.139.142-.208.213-.243-.071-.52-.178-.763-.178-.555 0-.902-.355-1.318-.638a.565.565 0 01-.242-.32c-.174-.78-.66-1.49-.486-2.343.52-.035 1.075.036 1.595-.177.347-.142.624.142.971.142 0-.426 0-.426-.208-.816z" fill="#F5DACC"/><path fill-rule="evenodd" clip-rule="evenodd" d="M14.155 19.75c.069 0 .138 0 .173.036-.035.213-.139.355-.347.39h-.659c.07-.106.139-.248.174-.354.208-.036.416-.071.659-.071z" fill="#CCAFA1"/><path fill-rule="evenodd" clip-rule="evenodd" d="M19.39 22.022c.14-.213.278-.461.451-.674.208-.32.139-.64-.035-.958a2.903 2.903 0 011.457.283c.208.071.312.249.312.497 0 .178-.035.355-.208.426-.59.213-1.11.64-1.803.462-.035-.036-.104-.036-.174-.036zM18.177 23.69c0-.142 0-.284.035-.39.138-.32.104-.568-.104-.852-.14-.177 0-.355.173-.355.381-.035.728 0 1.11-.035-.278.461-.555.887-.833 1.348-.104.107-.242.178-.381.284z" fill="#F3D5C4"/><path fill-rule="evenodd" clip-rule="evenodd" d="M15.542 23.477c0 .213 0 .462-.174.604a1.517 1.517 0 00-.242-.213.89.89 0 01.416-.39z" fill="#EFC6B2"/><path fill-rule="evenodd" clip-rule="evenodd" d="M14.952 24.08l.208-.212c-.035.142-.139.177-.208.213z" fill="#EFC7B2"/><path fill-rule="evenodd" clip-rule="evenodd" d="M15.541 23.477c0-.07 0-.106.035-.177 0-.036.035-.071.035-.071.07 0 .104.07.07.142-.035.035-.07.07-.14.106z" fill="#EFC6B2"/></svg>